<svg version="1.1" viewBox="0.0 0.0 1280.0 720.0" fill="none" stroke="none" stroke-linecap="square" stroke-miterlimit="10" xmlns:xlink="http://www.w3.org/1999/xlink" xmlns="http://www.w3.org/2000/svg"><clipPath id="g3c29e16ebcc_0_3.0"><path d="m0 0l1280.0 0l0 720.0l-1280.0 0l0 -720.0z" clip-rule="nonzero"/></clipPath><g clip-path="url(#g3c29e16ebcc_0_3.0)"><path fill="#ffffff" d="m0 0l1280.0 0l0 720.0l-1280.0 0z" fill-rule="evenodd"/><path fill="#000000" fill-opacity="0.0" d="m872.77985 658.56616l307.49603 0l0 25.070862l-307.49603 0z" fill-rule="evenodd"/><path fill="#464646" d="m976.9977 661.84204q-1.53125 0 -2.625 -0.640625q-1.078125 -0.640625 -1.65625 -1.828125q-0.578125 -1.1875 -0.578125 -2.828125q0 -1.640625 0.578125 -2.8125q0.578125 -1.1875 1.65625 -1.828125q1.09375 -0.65625 2.625 -0.65625q1.0625 0 1.96875 0.34375q0.90625 0.328125 1.53125 0.984375l-0.46875 0.984375q-0.671875 -0.640625 -1.40625 -0.921875q-0.71875 -0.28125 -1.59375 -0.28125q-1.75 0 -2.671875 1.09375q-0.921875 1.09375 -0.921875 3.09375q0 1.984375 0.921875 3.09375q0.921875 1.109375 2.671875 1.109375q0.875 0 1.59375 -0.28125q0.734375 -0.28125 1.40625 -0.921875l0.46875 0.984375q-0.625 0.625 -1.53125 0.96875q-0.90625 0.34375 -1.96875 0.34375zm7.4105225 0q-1.078125 0 -1.640625 -0.640625q-0.546875 -0.640625 -0.546875 -1.84375l0 -7.96875l1.1875 0l0 7.875q0 0.515625 0.140625 0.875q0.140625 0.34375 0.421875 0.53125q0.28125 0.171875 0.6875 0.171875q0.171875 0 0.34375 -0.015625q0.171875 -0.03125 0.3125 -0.078125l-0.03125 1.0q-0.234375 0.046875 -0.453125 0.0625q-0.203125 0.03125 -0.421875 0.03125zm4.400818 0q-0.734375 0 -1.3125 -0.28125q-0.578125 -0.28125 -0.921875 -0.78125q-0.328125 -0.5 -0.328125 -1.109375q0 -0.796875 0.390625 -1.25q0.40625 -0.453125 1.328125 -0.640625q0.9375 -0.203125 2.5625 -0.203125l0.65625 0l0 0.78125l-0.65625 0q-0.890625 0 -1.5 0.0625q-0.59375 0.0625 -0.953125 0.203125q-0.34375 0.140625 -0.484375 0.375q-0.140625 0.234375 -0.140625 0.59375q0 0.59375 0.40625 0.984375q0.421875 0.375 1.140625 0.375q0.59375 0 1.03125 -0.265625q0.453125 -0.28125 0.703125 -0.765625q0.265625 -0.484375 0.265625 -1.125l0 -1.671875q0 -0.90625 -0.375 -1.296875q-0.359375 -0.40625 -1.203125 -0.40625q-0.640625 0 -1.25 0.1875q-0.59375 0.171875 -1.21875 0.578125l-0.421875 -0.859375q0.390625 -0.265625 0.875 -0.453125q0.484375 -0.203125 1.0 -0.296875q0.53125 -0.109375 1.015625 -0.109375q0.921875 0 1.515625 0.296875q0.609375 0.296875 0.90625 0.90625q0.296875 0.609375 0.296875 1.5625l0 4.484375l-1.125 0l0 -1.65625l0.140625 0q-0.125 0.5625 -0.453125 0.953125q-0.328125 0.390625 -0.8125 0.609375q-0.484375 0.21875 -1.078125 0.21875zm7.9240723 0q-0.5625 0 -1.078125 -0.109375q-0.515625 -0.109375 -0.96875 -0.296875q-0.4375 -0.203125 -0.765625 -0.484375l0.375 -0.828125q0.359375 0.28125 0.765625 0.46875q0.40625 0.171875 0.828125 0.265625q0.4375 0.078125 0.875 0.078125q0.828125 0 1.25 -0.296875q0.4375 -0.3125 0.4375 -0.84375q0 -0.40625 -0.28125 -0.640625q-0.28125 -0.25 -0.875 -0.390625l-1.34375 -0.28125q-0.921875 -0.1875 -1.375 -0.65625q-0.4375 -0.484375 -0.4375 -1.21875q0 -0.671875 0.34375 -1.140625q0.34375 -0.484375 0.96875 -0.734375q0.640625 -0.265625 1.46875 -0.265625q0.5 0 0.953125 0.109375q0.453125 0.09375 0.859375 0.296875q0.40625 0.1875 0.703125 0.484375l-0.40625 0.828125q-0.265625 -0.265625 -0.625 -0.4375q-0.34375 -0.1875 -0.71875 -0.28125q-0.375 -0.09375 -0.765625 -0.09375q-0.8125 0 -1.25 0.328125q-0.421875 0.3125 -0.421875 0.84375q0 0.40625 0.265625 0.671875q0.265625 0.265625 0.828125 0.375l1.328125 0.28125q0.953125 0.203125 1.421875 0.65625q0.484375 0.453125 0.484375 1.203125q0 0.65625 -0.359375 1.140625q-0.34375 0.46875 -0.984375 0.71875q-0.640625 0.25 -1.5 0.25zm7.0496826 0q-0.5625 0 -1.078125 -0.109375q-0.515625 -0.109375 -0.96875 -0.296875q-0.4375 -0.203125 -0.765625 -0.484375l0.375 -0.828125q0.359375 0.28125 0.765625 0.46875q0.40625 0.171875 0.828125 0.265625q0.4375 0.078125 0.875 0.078125q0.828125 0 1.25 -0.296875q0.4375 -0.3125 0.4375 -0.84375q0 -0.40625 -0.28125 -0.640625q-0.28125 -0.25 -0.875 -0.390625l-1.34375 -0.28125q-0.921875 -0.1875 -1.375 -0.65625q-0.4375 -0.484375 -0.4375 -1.21875q0 -0.671875 0.34375 -1.140625q0.34375 -0.484375 0.96875 -0.734375q0.640625 -0.265625 1.46875 -0.265625q0.5 0 0.953125 0.109375q0.453125 0.09375 0.859375 0.296875q0.40625 0.1875 0.703125 0.484375l-0.40625 0.828125q-0.265625 -0.265625 -0.625 -0.4375q-0.34375 -0.1875 -0.71875 -0.28125q-0.375 -0.09375 -0.765625 -0.09375q-0.8125 0 -1.25 0.328125q-0.421875 0.3125 -0.421875 0.84375q0 0.40625 0.265625 0.671875q0.265625 0.265625 0.828125 0.375l1.328125 0.28125q0.953125 0.203125 1.421875 0.65625q0.484375 0.453125 0.484375 1.203125q0 0.65625 -0.359375 1.140625q-0.34375 0.46875 -0.984375 0.71875q-0.640625 0.25 -1.5 0.25zm4.5028076 -9.015625l0 -1.34375l1.46875 0l0 1.34375l-1.46875 0zm0.140625 8.890625l0 -7.125l1.1875 0l0 7.125l-1.1875 0zm3.7908936 0l0 -6.203125l-1.40625 0l0 -0.921875l1.71875 0l-0.3125 0.3125l0 -0.5625q0 -1.421875 0.703125 -2.15625q0.71875 -0.734375 2.1875 -0.8125l0.546875 -0.03125l0.078125 0.921875l-0.625 0.03125q-0.59375 0.03125 -0.984375 0.265625q-0.375 0.21875 -0.546875 0.625q-0.171875 0.40625 -0.171875 1.015625l0 0.546875l0 -0.15625l4.390625 0l0 7.125l-1.1875 0l0 -6.203125l-3.203125 0l0 6.203125l-1.1875 0zm4.265625 -8.890625l0 -1.34375l1.4375 0l0 1.34375l-1.4375 0zm6.567871 9.015625q-1.078125 0 -1.859375 -0.46875q-0.765625 -0.46875 -1.1875 -1.296875q-0.421875 -0.84375 -0.421875 -1.96875q0 -1.125 0.421875 -1.9375q0.421875 -0.828125 1.1875 -1.265625q0.78125 -0.4375 1.859375 -0.4375q0.65625 0 1.296814 0.234375q0.640625 0.234375 1.0625 0.65625l-0.40625 0.859375q-0.421875 -0.40625 -0.9375 -0.59375q-0.49993896 -0.1875 -0.95306396 -0.1875q-1.109375 0 -1.71875 0.703125q-0.59375 0.6875 -0.59375 1.984375q0 1.28125 0.59375 2.03125q0.609375 0.734375 1.71875 0.734375q0.453125 0 0.95306396 -0.1875q0.515625 -0.203125 0.9375 -0.625l0.40625 0.859375q-0.421875 0.421875 -1.078125 0.671875q-0.64056396 0.234375 -1.281189 0.234375zm5.945984 0q-0.734375 0 -1.3125 -0.28125q-0.578125 -0.28125 -0.921875 -0.78125q-0.328125 -0.5 -0.328125 -1.109375q0 -0.796875 0.390625 -1.25q0.40625 -0.453125 1.328125 -0.640625q0.9375 -0.203125 2.5625 -0.203125l0.65625 0l0 0.78125l-0.65625 0q-0.890625 0 -1.5 0.0625q-0.59375 0.0625 -0.953125 0.203125q-0.34375 0.140625 -0.484375 0.375q-0.140625 0.234375 -0.140625 0.59375q0 0.59375 0.40625 0.984375q0.421875 0.375 1.140625 0.375q0.59375 0 1.03125 -0.265625q0.453125 -0.28125 0.703125 -0.765625q0.265625 -0.484375 0.265625 -1.125l0 -1.671875q0 -0.90625 -0.375 -1.296875q-0.359375 -0.40625 -1.203125 -0.40625q-0.640625 0 -1.25 0.1875q-0.59375 0.171875 -1.21875 0.578125l-0.421875 -0.859375q0.390625 -0.265625 0.875 -0.453125q0.484375 -0.203125 1.0 -0.296875q0.53125 -0.109375 1.015625 -0.109375q0.921875 0 1.515625 0.296875q0.609375 0.296875 0.90625 0.90625q0.296875 0.609375 0.296875 1.5625l0 4.484375l-1.125 0l0 -1.65625l0.140625 0q-0.125 0.5625 -0.453125 0.953125q-0.328125 0.390625 -0.8125 0.609375q-0.484375 0.21875 -1.078125 0.21875zm8.377197 0q-1.25 0 -1.890625 -0.671875q-0.625 -0.671875 -0.625 -1.921875l0 -3.734375l-1.390625 0l0 -0.921875l1.390625 0l0 -2.1875l1.1875 0l0 2.1875l2.25 0l0 0.921875l-2.25 0l0 3.625q0 0.828125 0.34375 1.265625q0.359375 0.4375 1.15625 0.4375q0.234375 0 0.46875 -0.0625q0.234375 -0.0625 0.421875 -0.125l0.203125 0.921875q-0.1875 0.09375 -0.5625 0.171875q-0.359375 0.09375 -0.703125 0.09375zm2.1296387 -9.015625l0 -1.34375l1.46875 0l0 1.34375l-1.46875 0zm0.140625 8.890625l0 -7.125l1.1875 0l0 7.125l-1.1875 0zm6.3690186 0.125q-1.046875 0 -1.8125 -0.453125q-0.75 -0.453125 -1.171875 -1.28125q-0.421875 -0.828125 -0.421875 -1.953125q0 -1.125 0.421875 -1.953125q0.421875 -0.828125 1.171875 -1.28125q0.765625 -0.453125 1.8125 -0.453125q1.03125 0 1.796875 0.453125q0.765625 0.453125 1.171875 1.28125q0.421875 0.828125 0.421875 1.953125q0 1.125 -0.421875 1.953125q-0.40625 0.828125 -1.171875 1.28125q-0.765625 0.453125 -1.796875 0.453125zm0 -0.953125q1.0 0 1.59375 -0.703125q0.59375 -0.71875 0.59375 -2.046875q0 -1.3125 -0.59375 -2.015625q-0.59375 -0.703125 -1.59375 -0.703125q-1.0 0 -1.609375 0.703125q-0.59375 0.703125 -0.59375 2.015625q0 1.328125 0.59375 2.046875q0.609375 0.703125 1.609375 0.703125zm5.180176 0.828125l0 -7.125l1.15625 0l0 1.578125l-0.15625 0q0.3125 -0.84375 1.0 -1.265625q0.703125 -0.4375 1.609375 -0.4375q0.84375 0 1.40625 0.296875q0.578125 0.296875 0.84375 0.9375q0.28125 0.625 0.28125 1.578125l0 4.4375l-1.1875 0l0 -4.375q0 -0.65625 -0.171875 -1.078125q-0.15625 -0.421875 -0.515625 -0.625q-0.359375 -0.203125 -0.9375 -0.203125q-0.640625 0 -1.125 0.28125q-0.484375 0.265625 -0.75 0.765625q-0.265625 0.5 -0.265625 1.171875l0 4.0625l-1.1875 0zm8.137329 -5.625l0 -1.5l1.5 0l0 1.5l-1.5 0zm0 5.625l0 -1.5l1.5 0l0 1.5l-1.5 0zm6.4676514 0l4.5625 -10.328125l1.015625 0l4.5625 10.328125l-1.25 0l-1.265625 -2.953125l0.578125 0.3125l-6.296875 0l0.59375 -0.3125l-1.25 2.953125l-1.25 0zm5.046875 -8.921875l-2.359375 5.546875l-0.34375 -0.28125l5.421875 0l-0.328125 0.28125l-2.359375 -5.546875l-0.03125 0zm8.178101 8.921875l-3.0625 -7.125l1.296875 0l2.546875 6.25l-0.390625 0l2.59375 -6.25l1.21875 0l-3.078125 7.125l-1.125 0zm8.570435 0.125q-1.140625 0 -1.953125 -0.4375q-0.8125 -0.453125 -1.265625 -1.265625q-0.4375 -0.828125 -0.4375 -1.96875q0 -1.109375 0.4375 -1.9375q0.4375 -0.828125 1.203125 -1.296875q0.78125 -0.46875 1.796875 -0.46875q0.96875 0 1.65625 0.421875q0.6875 0.421875 1.0625 1.203125q0.375 0.78125 0.375 1.859375l0 0.453125l-5.625 0l0 -0.78125l4.828125 0l-0.234375 0.1875q0 -1.171875 -0.53125 -1.8125q-0.515625 -0.65625 -1.5 -0.65625q-0.75 0 -1.28125 0.34375q-0.515625 0.34375 -0.78125 0.953125q-0.265625 0.609375 -0.265625 1.40625l0 0.09375q0 0.890625 0.28125 1.515625q0.296875 0.609375 0.859375 0.921875q0.578125 0.3125 1.375 0.3125q0.625 0 1.21875 -0.1875q0.59375 -0.203125 1.125 -0.65625l0.40625 0.84375q-0.484375 0.4375 -1.234375 0.703125q-0.75 0.25 -1.515625 0.25zm4.578369 -0.125l0 -7.125l1.15625 0l0 1.6875l-0.140625 0q0.25 -0.859375 0.859375 -1.3125q0.625 -0.453125 1.625 -0.515625l0.4375 -0.046875l0.078125 1.03125l-0.75 0.078125q-0.984375 0.09375 -1.53125 0.640625q-0.53125 0.546875 -0.53125 1.5l0 4.0625l-1.203125 0zm6.5150146 2.640625l1.328125 -3.0l0 0.5l-3.125 -7.265625l1.296875 0l2.546875 6.25l-0.390625 0l2.578125 -6.25l1.25 0l-4.234375 9.765625l-1.25 0zm10.643799 -2.640625l0 -10.328125l3.484375 0q1.6875 0 2.84375 0.59375q1.171875 0.59375 1.78125 1.75q0.609375 1.140625 0.609375 2.8125q0 1.671875 -0.609375 2.828125q-0.609375 1.15625 -1.78125 1.75q-1.15625 0.59375 -2.84375 0.59375l-3.484375 0zm1.203125 -1.03125l2.1875 0q2.046875 0 3.046875 -1.03125q1.0 -1.046875 1.0 -3.109375q0 -2.0625 -1.015625 -3.09375q-1.0 -1.046875 -3.03125 -1.046875l-2.1875 0l0 8.28125zm12.71875 1.15625q-1.140625 0 -1.953125 -0.4375q-0.8125 -0.453125 -1.265625 -1.265625q-0.4375 -0.828125 -0.4375 -1.96875q0 -1.109375 0.4375 -1.9375q0.4375 -0.828125 1.203125 -1.296875q0.78125 -0.46875 1.796875 -0.46875q0.96875 0 1.65625 0.421875q0.6875 0.421875 1.0625 1.203125q0.375 0.78125 0.375 1.859375l0 0.453125l-5.625 0l0 -0.78125l4.828125 0l-0.234375 0.1875q0 -1.171875 -0.53125 -1.8125q-0.515625 -0.65625 -1.5 -0.65625q-0.75 0 -1.28125 0.34375q-0.515625 0.34375 -0.78125 0.953125q-0.265625 0.609375 -0.265625 1.40625l0 0.09375q0 0.890625 0.28125 1.515625q0.296875 0.609375 0.859375 0.921875q0.578125 0.3125 1.375 0.3125q0.625 0 1.21875 -0.1875q0.59375 -0.203125 1.125 -0.65625l0.40625 0.84375q-0.484375 0.4375 -1.234375 0.703125q-0.75 0.25 -1.515625 0.25zm4.578369 -0.125l0 -7.125l1.15625 0l0 1.578125l-0.15625 0q0.3125 -0.84375 1.0 -1.265625q0.703125 -0.4375 1.609375 -0.4375q0.84375 0 1.40625 0.296875q0.578125 0.296875 0.84375 0.9375q0.28125 0.625 0.28125 1.578125l0 4.4375l-1.1875 0l0 -4.375q0 -0.65625 -0.171875 -1.078125q-0.15625 -0.421875 -0.515625 -0.625q-0.359375 -0.203125 -0.9375 -0.203125q-0.640625 0 -1.125 0.28125q-0.484375 0.265625 -0.75 0.765625q-0.265625 0.5 -0.265625 1.171875l0 4.0625l-1.1875 0zm8.324829 0l0 -7.125l1.15625 0l0 1.578125l-0.15625 0q0.3125 -0.84375 1.0 -1.265625q0.703125 -0.4375 1.609375 -0.4375q0.84375 0 1.40625 0.296875q0.578125 0.296875 0.84375 0.9375q0.28125 0.625 0.28125 1.578125l0 4.4375l-1.1875 0l0 -4.375q0 -0.65625 -0.171875 -1.078125q-0.15625 -0.421875 -0.515625 -0.625q-0.359375 -0.203125 -0.9375 -0.203125q-0.640625 0 -1.125 0.28125q-0.484375 0.265625 -0.75 0.765625q-0.265625 0.5 -0.265625 1.171875l0 4.0625l-1.1875 0zm8.184204 -8.890625l0 -1.34375l1.46875 0l0 1.34375l-1.46875 0zm0.140625 8.890625l0 -7.125l1.1875 0l0 7.125l-1.1875 0zm5.8065186 0.125q-0.5625 0 -1.078125 -0.109375q-0.515625 -0.109375 -0.96875 -0.296875q-0.4375 -0.203125 -0.765625 -0.484375l0.375 -0.828125q0.359375 0.28125 0.765625 0.46875q0.40625 0.171875 0.828125 0.265625q0.4375 0.078125 0.875 0.078125q0.828125 0 1.25 -0.296875q0.4375 -0.3125 0.4375 -0.84375q0 -0.40625 -0.28125 -0.640625q-0.28125 -0.25 -0.875 -0.390625l-1.34375 -0.28125q-0.921875 -0.1875 -1.375 -0.65625q-0.4375 -0.484375 -0.4375 -1.21875q0 -0.671875 0.34375 -1.140625q0.34375 -0.484375 0.96875 -0.734375q0.640625 -0.265625 1.46875 -0.265625q0.5 0 0.953125 0.109375q0.453125 0.09375 0.859375 0.296875q0.40625 0.1875 0.703125 0.484375l-0.40625 0.828125q-0.265625 -0.265625 -0.625 -0.4375q-0.34375 -0.1875 -0.71875 -0.28125q-0.375 -0.09375 -0.765625 -0.09375q-0.8125 0 -1.25 0.328125q-0.421875 0.3125 -0.421875 0.84375q0 0.40625 0.265625 0.671875q0.265625 0.265625 0.828125 0.375l1.328125 0.28125q0.953125 0.203125 1.421875 0.65625q0.484375 0.453125 0.484375 1.203125q0 0.65625 -0.359375 1.140625q-0.34375 0.46875 -0.984375 0.71875q-0.640625 0.25 -1.5 0.25zm7.6121826 0q-1.046875 0 -1.8125 -0.453125q-0.75 -0.453125 -1.171875 -1.28125q-0.421875 -0.828125 -0.421875 -1.953125q0 -1.125 0.421875 -1.953125q0.421875 -0.828125 1.171875 -1.28125q0.765625 -0.453125 1.8125 -0.453125q1.03125 0 1.796875 0.453125q0.765625 0.453125 1.171875 1.28125q0.421875 0.828125 0.421875 1.953125q0 1.125 -0.421875 1.953125q-0.40625 0.828125 -1.171875 1.28125q-0.765625 0.453125 -1.796875 0.453125zm0 -0.953125q1.0 0 1.59375 -0.703125q0.59375 -0.71875 0.59375 -2.046875q0 -1.3125 -0.59375 -2.015625q-0.59375 -0.703125 -1.59375 -0.703125q-1.0 0 -1.609375 0.703125q-0.59375 0.703125 -0.59375 2.015625q0 1.328125 0.59375 2.046875q0.609375 0.703125 1.609375 0.703125zm5.1800537 0.828125l0 -7.125l1.15625 0l0 1.578125l-0.15625 0q0.3125 -0.84375 1.0 -1.265625q0.703125 -0.4375 1.609375 -0.4375q0.84375 0 1.40625 0.296875q0.578125 0.296875 0.84375 0.9375q0.28125 0.625 0.28125 1.578125l0 4.4375l-1.1875 0l0 -4.375q0 -0.65625 -0.171875 -1.078125q-0.15625 -0.421875 -0.515625 -0.625q-0.359375 -0.203125 -0.9375 -0.203125q-0.640625 0 -1.125 0.28125q-0.484375 0.265625 -0.75 0.765625q-0.265625 0.5 -0.265625 1.171875l0 4.0625l-1.1875 0zm12.044678 -3.421875l0 -0.96875l4.09375 0l0 0.96875l-4.09375 0z" fill-rule="nonzero"/><path fill="#464646" d="m877.8054 679.71704l0 -10.328125l1.203125 0l0 10.328125l-1.203125 0zm3.5801392 0l0 -7.125l1.15625 0l0 1.578125l-0.15625 0q0.3125 -0.84375 1.0 -1.265625q0.703125 -0.4375 1.609375 -0.4375q0.84375 0 1.40625 0.296875q0.578125 0.296875 0.84375 0.9375q0.28125 0.625 0.28125 1.578125l0 4.4375l-1.1875 0l0 -4.375q0 -0.65625 -0.171875 -1.078125q-0.15625 -0.421875 -0.515625 -0.625q-0.359375 -0.203125 -0.9375 -0.203125q-0.640625 0 -1.125 0.28125q-0.484375 0.265625 -0.75 0.765625q-0.265625 0.5 -0.265625 1.171875l0 4.0625l-1.1875 0zm11.184143 0.125q-1.25 0 -1.890625 -0.671875q-0.625 -0.671875 -0.625 -1.921875l0 -3.734375l-1.390625 0l0 -0.921875l1.390625 0l0 -2.1875l1.1875 0l0 2.1875l2.25 0l0 0.921875l-2.25 0l0 3.625q0 0.828125 0.34375 1.265625q0.359375 0.4375 1.15625 0.4375q0.234375 0 0.46875 -0.0625q0.234375 -0.0625 0.421875 -0.125l0.203125 0.921875q-0.1875 0.09375 -0.5625 0.171875q-0.359375 0.09375 -0.703125 0.09375zm5.4157715 0q-1.140625 0 -1.953125 -0.4375q-0.8125 -0.453125 -1.265625 -1.265625q-0.4375 -0.828125 -0.4375 -1.96875q0 -1.109375 0.4375 -1.9375q0.4375 -0.828125 1.203125 -1.296875q0.78125 -0.46875 1.796875 -0.46875q0.96875 0 1.65625 0.421875q0.6875 0.421875 1.0625 1.203125q0.375 0.78125 0.375 1.859375l0 0.453125l-5.625 0l0 -0.78125l4.828125 0l-0.234375 0.1875q0 -1.171875 -0.53125 -1.8125q-0.515625 -0.65625 -1.5 -0.65625q-0.75 0 -1.28125 0.34375q-0.515625 0.34375 -0.78125 0.953125q-0.265625 0.609375 -0.265625 1.40625l0 0.09375q0 0.890625 0.28125 1.515625q0.296875 0.609375 0.859375 0.921875q0.578125 0.3125 1.375 0.3125q0.625 0 1.21875 -0.1875q0.59375 -0.203125 1.125 -0.65625l0.40625 0.84375q-0.484375 0.4375 -1.234375 0.703125q-0.75 0.25 -1.515625 0.25zm4.578369 -0.125l0 -7.125l1.15625 0l0 1.6875l-0.140625 0q0.25 -0.859375 0.859375 -1.3125q0.625 -0.453125 1.625 -0.515625l0.4375 -0.046875l0.078125 1.03125l-0.75 0.078125q-0.984375 0.09375 -1.53125 0.640625q-0.53125 0.546875 -0.53125 1.5l0 4.0625l-1.203125 0zm5.2470093 0l0 -7.125l1.15625 0l0 1.578125l-0.15625 0q0.3125 -0.84375 1.0 -1.265625q0.703125 -0.4375 1.609375 -0.4375q0.84375 0 1.40625 0.296875q0.578125 0.296875 0.84375 0.9375q0.28125 0.625 0.28125 1.578125l0 4.4375l-1.1875 0l0 -4.375q0 -0.65625 -0.171875 -1.078125q-0.15625 -0.421875 -0.515625 -0.625q-0.359375 -0.203125 -0.9375 -0.203125q-0.640625 0 -1.125 0.28125q-0.484375 0.265625 -0.75 0.765625q-0.265625 0.5 -0.265625 1.171875l0 4.0625l-1.1875 0zm10.574768 0.125q-0.734375 0 -1.3125 -0.28125q-0.578125 -0.28125 -0.921875 -0.78125q-0.328125 -0.5 -0.328125 -1.109375q0 -0.796875 0.390625 -1.25q0.40625 -0.453125 1.328125 -0.640625q0.9375 -0.203125 2.5625 -0.203125l0.65625 0l0 0.78125l-0.65625 0q-0.890625 0 -1.5 0.0625q-0.59375 0.0625 -0.953125 0.203125q-0.34375 0.140625 -0.484375 0.375q-0.140625 0.234375 -0.140625 0.59375q0 0.59375 0.40625 0.984375q0.421875 0.375 1.140625 0.375q0.59375 0 1.03125 -0.265625q0.453125 -0.28125 0.703125 -0.765625q0.265625 -0.484375 0.265625 -1.125l0 -1.671875q0 -0.90625 -0.375 -1.296875q-0.359375 -0.40625 -1.203125 -0.40625q-0.640625 0 -1.25 0.1875q-0.59375 0.171875 -1.21875 0.578125l-0.421875 -0.859375q0.390625 -0.265625 0.875 -0.453125q0.484375 -0.203125 1.0 -0.296875q0.53125 -0.109375 1.015625 -0.109375q0.921875 0 1.515625 0.296875q0.609375 0.296875 0.90625 0.90625q0.296875 0.609375 0.296875 1.5625l0 4.484375l-1.125 0l0 -1.65625l0.140625 0q-0.125 0.5625 -0.453125 0.953125q-0.328125 0.390625 -0.8125 0.609375q-0.484375 0.21875 -1.078125 0.21875zm7.7053223 0q-1.078125 0 -1.640625 -0.640625q-0.546875 -0.640625 -0.546875 -1.84375l0 -7.96875l1.1875 0l0 7.875q0 0.515625 0.140625 0.875q0.140625 0.34375 0.421875 0.53125q0.28125 0.171875 0.6875 0.171875q0.171875 0 0.34375 -0.015625q0.171875 -0.03125 0.3125 -0.078125l-0.03125 1.0q-0.234375 0.046875 -0.453125 0.0625q-0.203125 0.03125 -0.421875 0.03125zm6.659424 0q-1.53125 0 -2.625 -0.640625q-1.078125 -0.640625 -1.65625 -1.828125q-0.578125 -1.1875 -0.578125 -2.828125q0 -1.640625 0.578125 -2.8125q0.578125 -1.1875 1.65625 -1.828125q1.09375 -0.65625 2.625 -0.65625q1.0625 0 1.96875 0.34375q0.90625 0.328125 1.53125 0.984375l-0.46875 0.984375q-0.671875 -0.640625 -1.40625 -0.921875q-0.71875 -0.28125 -1.59375 -0.28125q-1.75 0 -2.671875 1.09375q-0.921875 1.09375 -0.921875 3.09375q0 1.984375 0.921875 3.09375q0.921875 1.109375 2.671875 1.109375q0.875 0 1.59375 -0.28125q0.734375 -0.28125 1.40625 -0.921875l0.46875 0.984375q-0.625 0.625 -1.53125 0.96875q-0.90625 0.34375 -1.96875 0.34375zm7.4105225 0q-1.078125 0 -1.640625 -0.640625q-0.546875 -0.640625 -0.546875 -1.84375l0 -7.96875l1.1875 0l0 7.875q0 0.515625 0.140625 0.875q0.140625 0.34375 0.421875 0.53125q0.28125 0.171875 0.6875 0.171875q0.171875 0 0.34375 -0.015625q0.171875 -0.03125 0.3125 -0.078125l-0.03125 1.0q-0.234375 0.046875 -0.453125 0.0625q-0.203125 0.03125 -0.421875 0.03125zm4.400818 0q-0.734375 0 -1.3125 -0.28125q-0.578125 -0.28125 -0.921875 -0.78125q-0.328125 -0.5 -0.328125 -1.109375q0 -0.796875 0.390625 -1.25q0.40625 -0.453125 1.328125 -0.640625q0.9375 -0.203125 2.5625 -0.203125l0.65625 0l0 0.78125l-0.65625 0q-0.890625 0 -1.5 0.0625q-0.59375 0.0625 -0.953125 0.203125q-0.34375 0.140625 -0.484375 0.375q-0.140625 0.234375 -0.140625 0.59375q0 0.59375 0.40625 0.984375q0.421875 0.375 1.140625 0.375q0.59375 0 1.03125 -0.265625q0.453125 -0.28125 0.703125 -0.765625q0.265625 -0.484375 0.265625 -1.125l0 -1.671875q0 -0.90625 -0.375 -1.296875q-0.359375 -0.40625 -1.203125 -0.40625q-0.640625 0 -1.25 0.1875q-0.59375 0.171875 -1.21875 0.578125l-0.421875 -0.859375q0.390625 -0.265625 0.875 -0.453125q0.484375 -0.203125 1.0 -0.296875q0.53125 -0.109375 1.015625 -0.109375q0.921875 0 1.515625 0.296875q0.609375 0.296875 0.90625 0.90625q0.296875 0.609375 0.296875 1.5625l0 4.484375l-1.125 0l0 -1.65625l0.140625 0q-0.125 0.5625 -0.453125 0.953125q-0.328125 0.390625 -0.8125 0.609375q-0.484375 0.21875 -1.078125 0.21875zm7.9240723 0q-0.5625 0 -1.078125 -0.109375q-0.515625 -0.109375 -0.96875 -0.296875q-0.4375 -0.203125 -0.765625 -0.484375l0.375 -0.828125q0.359375 0.28125 0.765625 0.46875q0.40625 0.171875 0.828125 0.265625q0.4375 0.078125 0.875 0.078125q0.828125 0 1.25 -0.296875q0.4375 -0.3125 0.4375 -0.84375q0 -0.40625 -0.28125 -0.640625q-0.28125 -0.25 -0.875 -0.390625l-1.34375 -0.28125q-0.921875 -0.1875 -1.375 -0.65625q-0.4375 -0.484375 -0.4375 -1.21875q0 -0.671875 0.34375 -1.140625q0.34375 -0.484375 0.96875 -0.734375q0.640625 -0.265625 1.46875 -0.265625q0.5 0 0.953125 0.109375q0.453125 0.09375 0.859375 0.296875q0.40625 0.1875 0.703125 0.484375l-0.40625 0.828125q-0.265625 -0.265625 -0.625 -0.4375q-0.34375 -0.1875 -0.71875 -0.28125q-0.375 -0.09375 -0.765625 -0.09375q-0.8125 0 -1.25 0.328125q-0.421875 0.3125 -0.421875 0.84375q0 0.40625 0.265625 0.671875q0.265625 0.265625 0.828125 0.375l1.328125 0.28125q0.953125 0.203125 1.421875 0.65625q0.484375 0.453125 0.484375 1.203125q0 0.65625 -0.359375 1.140625q-0.34375 0.46875 -0.984375 0.71875q-0.640625 0.25 -1.5 0.25zm7.0496826 0q-0.5625 0 -1.078125 -0.109375q-0.515625 -0.109375 -0.96875 -0.296875q-0.4375 -0.203125 -0.765625 -0.484375l0.375 -0.828125q0.359375 0.28125 0.765625 0.46875q0.40625 0.171875 0.828125 0.265625q0.4375 0.078125 0.875 0.078125q0.828125 0 1.25 -0.296875q0.4375 -0.3125 0.4375 -0.84375q0 -0.40625 -0.28125 -0.640625q-0.28125 -0.25 -0.875 -0.390625l-1.34375 -0.28125q-0.921875 -0.1875 -1.375 -0.65625q-0.4375 -0.484375 -0.4375 -1.21875q0 -0.671875 0.34375 -1.140625q0.34375 -0.484375 0.96875 -0.734375q0.640625 -0.265625 1.46875 -0.265625q0.5 0 0.953125 0.109375q0.453125 0.09375 0.859375 0.296875q0.40625 0.1875 0.703125 0.484375l-0.40625 0.828125q-0.265625 -0.265625 -0.625 -0.4375q-0.34375 -0.1875 -0.71875 -0.28125q-0.375 -0.09375 -0.765625 -0.09375q-0.8125 0 -1.25 0.328125q-0.421875 0.3125 -0.421875 0.84375q0 0.40625 0.265625 0.671875q0.265625 0.265625 0.828125 0.375l1.328125 0.28125q0.953125 0.203125 1.421875 0.65625q0.484375 0.453125 0.484375 1.203125q0 0.65625 -0.359375 1.140625q-0.34375 0.46875 -0.984375 0.71875q-0.640625 0.25 -1.5 0.25zm4.5028076 -9.015625l0 -1.34375l1.46875 0l0 1.34375l-1.46875 0zm0.140625 8.890625l0 -7.125l1.1875 0l0 7.125l-1.1875 0zm3.7908936 0l0 -6.203125l-1.40625 0l0 -0.921875l1.71875 0l-0.3125 0.3125l0 -0.5625q0 -1.421875 0.703125 -2.15625q0.71875 -0.734375 2.1875 -0.8125l0.546875 -0.03125l0.078125 0.921875l-0.625 0.03125q-0.59375 0.03125 -0.984375 0.265625q-0.375 0.21875 -0.546875 0.625q-0.171875 0.40625 -0.171875 1.015625l0 0.546875l0 -0.15625l4.390625 0l0 7.125l-1.1875 0l0 -6.203125l-3.203125 0l0 6.203125l-1.1875 0zm4.265625 -8.890625l0 -1.34375l1.4375 0l0 1.34375l-1.4375 0zm6.567871 9.015625q-1.078125 0 -1.859375 -0.46875q-0.765625 -0.46875 -1.1875 -1.296875q-0.421875 -0.84375 -0.421875 -1.96875q0 -1.125 0.421875 -1.9375q0.421875 -0.828125 1.1875 -1.265625q0.78125 -0.4375 1.859375 -0.4375q0.65625 0 1.296875 0.234375q0.640625 0.234375 1.0625 0.65625l-0.40625 0.859375q-0.421875 -0.40625 -0.9375 -0.59375q-0.5 -0.1875 -0.953125 -0.1875q-1.109375 0 -1.71875 0.703125q-0.59375 0.6875 -0.59375 1.984375q0 1.28125 0.59375 2.03125q0.609375 0.734375 1.71875 0.734375q0.453125 0 0.953125 -0.1875q0.515625 -0.203125 0.9375 -0.625l0.40625 0.859375q-0.421875 0.421875 -1.078125 0.671875q-0.640625 0.234375 -1.28125 0.234375zm5.945923 0q-0.734375 0 -1.3125 -0.28125q-0.578125 -0.28125 -0.921875 -0.78125q-0.328125 -0.5 -0.328125 -1.109375q0 -0.796875 0.390625 -1.25q0.40625 -0.453125 1.328125 -0.640625q0.9375 -0.203125 2.5625 -0.203125l0.65625 0l0 0.78125l-0.65625 0q-0.890625 0 -1.5 0.0625q-0.59375 0.0625 -0.953125 0.203125q-0.34375 0.140625 -0.484375 0.375q-0.140625 0.234375 -0.140625 0.59375q0 0.59375 0.40625 0.984375q0.421875 0.375 1.140625 0.375q0.59375 0 1.03125 -0.265625q0.453125 -0.28125 0.703125 -0.765625q0.265625 -0.484375 0.265625 -1.125l0 -1.671875q0 -0.90625 -0.375 -1.296875q-0.359375 -0.40625 -1.203125 -0.40625q-0.640625 0 -1.25 0.1875q-0.59375 0.171875 -1.21875 0.578125l-0.421875 -0.859375q0.390625 -0.265625 0.875 -0.453125q0.484375 -0.203125 1.0 -0.296875q0.53125 -0.109375 1.015625 -0.109375q0.921875 0 1.515625 0.296875q0.609375 0.296875 0.90625 0.90625q0.296875 0.609375 0.296875 1.5625l0 4.484375l-1.125 0l0 -1.65625l0.140625 0q-0.125 0.5625 -0.453125 0.953125q-0.328125 0.390625 -0.8125 0.609375q-0.484375 0.21875 -1.078125 0.21875zm8.377258 0q-1.25 0 -1.890625 -0.671875q-0.625 -0.671875 -0.625 -1.921875l0 -3.734375l-1.390625 0l0 -0.921875l1.390625 0l0 -2.1875l1.1875 0l0 2.1875l2.25 0l0 0.921875l-2.25 0l0 3.625q0 0.828125 0.34375 1.265625q0.359375 0.4375 1.15625 0.4375q0.234375 0 0.46875 -0.0625q0.234375 -0.0625 0.421875 -0.125l0.203125 0.921875q-0.1875 0.09375 -0.5625 0.171875q-0.359375 0.09375 -0.703125 0.09375zm2.1296997 -9.015625l0 -1.34375l1.46875 0l0 1.34375l-1.46875 0zm0.140625 8.890625l0 -7.125l1.1875 0l0 7.125l-1.1875 0zm6.3690186 0.125q-1.046875 0 -1.8125 -0.453125q-0.75 -0.453125 -1.171875 -1.28125q-0.421875 -0.828125 -0.421875 -1.953125q0 -1.125 0.421875 -1.953125q0.421875 -0.828125 1.171875 -1.28125q0.765625 -0.453125 1.8125 -0.453125q1.03125 0 1.796875 0.453125q0.765625 0.453125 1.171875 1.28125q0.421875 0.828125 0.421875 1.953125q0 1.125 -0.421875 1.953125q-0.40625 0.828125 -1.171875 1.28125q-0.765625 0.453125 -1.796875 0.453125zm0 -0.953125q1.0 0 1.59375 -0.703125q0.59375 -0.71875 0.59375 -2.046875q0 -1.3125 -0.59375 -2.015625q-0.59375 -0.703125 -1.59375 -0.703125q-1.0 0 -1.609375 0.703125q-0.59375 0.703125 -0.59375 2.015625q0 1.328125 0.59375 2.046875q0.609375 0.703125 1.609375 0.703125zm5.1801147 0.828125l0 -7.125l1.15625 0l0 1.578125l-0.15625 0q0.3125 -0.84375 1.0 -1.265625q0.703125 -0.4375 1.609375 -0.4375q0.84375 0 1.40625 0.296875q0.578125 0.296875 0.84375 0.9375q0.28125 0.625 0.28125 1.578125l0 4.4375l-1.1875 0l0 -4.375q0 -0.65625 -0.171875 -1.078125q-0.15625 -0.421875 -0.515625 -0.625q-0.359375 -0.203125 -0.9375 -0.203125q-0.640625 0 -1.125 0.28125q-0.484375 0.265625 -0.75 0.765625q-0.265625 0.5 -0.265625 1.171875l0 4.0625l-1.1875 0zm8.137329 -5.625l0 -1.5l1.5 0l0 1.5l-1.5 0zm0 5.625l0 -1.5l1.5 0l0 1.5l-1.5 0zm6.4676514 0l4.5625 -10.328125l1.015625 0l4.5625 10.328125l-1.25 0l-1.265625 -2.953125l0.578125 0.3125l-6.296875 0l0.59375 -0.3125l-1.25 2.953125l-1.25 0zm5.046875 -8.921875l-2.359375 5.546875l-0.34375 -0.28125l5.421875 0l-0.328125 0.28125l-2.359375 -5.546875l-0.03125 0zm8.178101 8.921875l-3.0625 -7.125l1.296875 0l2.546875 6.25l-0.390625 0l2.59375 -6.25l1.21875 0l-3.078125 7.125l-1.125 0zm8.570435 0.125q-1.140625 0 -1.953125 -0.4375q-0.8125 -0.453125 -1.265625 -1.265625q-0.4375 -0.828125 -0.4375 -1.96875q0 -1.109375 0.4375 -1.9375q0.4375 -0.828125 1.203125 -1.296875q0.78125 -0.46875 1.796875 -0.46875q0.96875 0 1.65625 0.421875q0.6875 0.421875 1.0625 1.203125q0.375 0.78125 0.375 1.859375l0 0.453125l-5.625 0l0 -0.78125l4.828125 0l-0.234375 0.1875q0 -1.171875 -0.53125 -1.8125q-0.515625 -0.65625 -1.5 -0.65625q-0.75 0 -1.28125 0.34375q-0.515625 0.34375 -0.78125 0.953125q-0.265625 0.609375 -0.265625 1.40625l0 0.09375q0 0.890625 0.28125 1.515625q0.296875 0.609375 0.859375 0.921875q0.578125 0.3125 1.375 0.3125q0.625 0 1.21875 -0.1875q0.59375 -0.203125 1.125 -0.65625l0.40625 0.84375q-0.484375 0.4375 -1.234375 0.703125q-0.75 0.25 -1.515625 0.25zm4.578369 -0.125l0 -7.125l1.15625 0l0 1.6875l-0.140625 0q0.25 -0.859375 0.859375 -1.3125q0.625 -0.453125 1.625 -0.515625l0.4375 -0.046875l0.078125 1.03125l-0.75 0.078125q-0.984375 0.09375 -1.53125 0.640625q-0.53125 0.546875 -0.53125 1.5l0 4.0625l-1.203125 0zm6.5150146 2.640625l1.328125 -3.0l0 0.5l-3.125 -7.265625l1.296875 0l2.546875 6.25l-0.390625 0l2.578125 -6.25l1.25 0l-4.234375 9.765625l-1.25 0zm10.643799 -2.640625l0 -10.328125l3.484375 0q1.6875 0 2.84375 0.59375q1.171875 0.59375 1.78125 1.75q0.609375 1.140625 0.609375 2.8125q0 1.671875 -0.609375 2.828125q-0.609375 1.15625 -1.78125 1.75q-1.15625 0.59375 -2.84375 0.59375l-3.484375 0zm1.203125 -1.03125l2.1875 0q2.046875 0 3.046875 -1.03125q1.0 -1.046875 1.0 -3.109375q0 -2.0625 -1.015625 -3.09375q-1.0 -1.046875 -3.03125 -1.046875l-2.1875 0l0 8.28125zm12.71875 1.15625q-1.140625 0 -1.953125 -0.4375q-0.8125 -0.453125 -1.265625 -1.265625q-0.4375 -0.828125 -0.4375 -1.96875q0 -1.109375 0.4375 -1.9375q0.4375 -0.828125 1.203125 -1.296875q0.78125 -0.46875 1.796875 -0.46875q0.96875 0 1.65625 0.421875q0.6875 0.421875 1.0625 1.203125q0.375 0.78125 0.375 1.859375l0 0.453125l-5.625 0l0 -0.78125l4.828125 0l-0.234375 0.1875q0 -1.171875 -0.53125 -1.8125q-0.515625 -0.65625 -1.5 -0.65625q-0.75 0 -1.28125 0.34375q-0.515625 0.34375 -0.78125 0.953125q-0.265625 0.609375 -0.265625 1.40625l0 0.09375q0 0.890625 0.28125 1.515625q0.296875 0.609375 0.859375 0.921875q0.578125 0.3125 1.375 0.3125q0.625 0 1.21875 -0.1875q0.59375 -0.203125 1.125 -0.65625l0.40625 0.84375q-0.484375 0.4375 -1.234375 0.703125q-0.75 0.25 -1.515625 0.25zm4.578369 -0.125l0 -7.125l1.15625 0l0 1.578125l-0.15625 0q0.3125 -0.84375 1.0 -1.265625q0.703125 -0.4375 1.609375 -0.4375q0.84375 0 1.40625 0.296875q0.578125 0.296875 0.84375 0.9375q0.28125 0.625 0.28125 1.578125l0 4.4375l-1.1875 0l0 -4.375q0 -0.65625 -0.171875 -1.078125q-0.15625 -0.421875 -0.515625 -0.625q-0.359375 -0.203125 -0.9375 -0.203125q-0.640625 0 -1.125 0.28125q-0.484375 0.265625 -0.75 0.765625q-0.265625 0.5 -0.265625 1.171875l0 4.0625l-1.1875 0zm8.324829 0l0 -7.125l1.15625 0l0 1.578125l-0.15625 0q0.3125 -0.84375 1.0 -1.265625q0.703125 -0.4375 1.609375 -0.4375q0.84375 0 1.40625 0.296875q0.578125 0.296875 0.84375 0.9375q0.28125 0.625 0.28125 1.578125l0 4.4375l-1.1875 0l0 -4.375q0 -0.65625 -0.171875 -1.078125q-0.15625 -0.421875 -0.515625 -0.625q-0.359375 -0.203125 -0.9375 -0.203125q-0.640625 0 -1.125 0.28125q-0.484375 0.265625 -0.75 0.765625q-0.265625 0.5 -0.265625 1.171875l0 4.0625l-1.1875 0zm8.184204 -8.890625l0 -1.34375l1.46875 0l0 1.34375l-1.46875 0zm0.140625 8.890625l0 -7.125l1.1875 0l0 7.125l-1.1875 0zm5.8065186 0.125q-0.5625 0 -1.078125 -0.109375q-0.515625 -0.109375 -0.96875 -0.296875q-0.4375 -0.203125 -0.765625 -0.484375l0.375 -0.828125q0.359375 0.28125 0.765625 0.46875q0.40625 0.171875 0.828125 0.265625q0.4375 0.078125 0.875 0.078125q0.828125 0 1.25 -0.296875q0.4375 -0.3125 0.4375 -0.84375q0 -0.40625 -0.28125 -0.640625q-0.28125 -0.25 -0.875 -0.390625l-1.34375 -0.28125q-0.921875 -0.1875 -1.375 -0.65625q-0.4375 -0.484375 -0.4375 -1.21875q0 -0.671875 0.34375 -1.140625q0.34375 -0.484375 0.96875 -0.734375q0.640625 -0.265625 1.46875 -0.265625q0.5 0 0.953125 0.109375q0.453125 0.09375 0.859375 0.296875q0.40625 0.1875 0.703125 0.484375l-0.40625 0.828125q-0.265625 -0.265625 -0.625 -0.4375q-0.34375 -0.1875 -0.71875 -0.28125q-0.375 -0.09375 -0.765625 -0.09375q-0.8125 0 -1.25 0.328125q-0.421875 0.3125 -0.421875 0.84375q0 0.40625 0.265625 0.671875q0.265625 0.265625 0.828125 0.375l1.328125 0.28125q0.953125 0.203125 1.421875 0.65625q0.484375 0.453125 0.484375 1.203125q0 0.65625 -0.359375 1.140625q-0.34375 0.46875 -0.984375 0.71875q-0.640625 0.25 -1.5 0.25zm7.6121826 0q-1.046875 0 -1.8125 -0.453125q-0.75 -0.453125 -1.171875 -1.28125q-0.421875 -0.828125 -0.421875 -1.953125q0 -1.125 0.421875 -1.953125q0.421875 -0.828125 1.171875 -1.28125q0.765625 -0.453125 1.8125 -0.453125q1.03125 0 1.796875 0.453125q0.765625 0.453125 1.171875 1.28125q0.421875 0.828125 0.421875 1.953125q0 1.125 -0.421875 1.953125q-0.40625 0.828125 -1.171875 1.28125q-0.765625 0.453125 -1.796875 0.453125zm0 -0.953125q1.0 0 1.59375 -0.703125q0.59375 -0.71875 0.59375 -2.046875q0 -1.3125 -0.59375 -2.015625q-0.59375 -0.703125 -1.59375 -0.703125q-1.0 0 -1.609375 0.703125q-0.59375 0.703125 -0.59375 2.015625q0 1.328125 0.59375 2.046875q0.609375 0.703125 1.609375 0.703125zm5.1800537 0.828125l0 -7.125l1.15625 0l0 1.578125l-0.15625 0q0.3125 -0.84375 1.0 -1.265625q0.703125 -0.4375 1.609375 -0.4375q0.84375 0 1.40625 0.296875q0.578125 0.296875 0.84375 0.9375q0.28125 0.625 0.28125 1.578125l0 4.4375l-1.1875 0l0 -4.375q0 -0.65625 -0.171875 -1.078125q-0.15625 -0.421875 -0.515625 -0.625q-0.359375 -0.203125 -0.9375 -0.203125q-0.640625 0 -1.125 0.28125q-0.484375 0.265625 -0.75 0.765625q-0.265625 0.5 -0.265625 1.171875l0 4.0625l-1.1875 0zm12.044678 -3.421875l0 -0.96875l4.09375 0l0 0.96875l-4.09375 0zm10.199707 3.421875l0 -10.328125l4.078125 0q1.125 0 1.890625 0.359375q0.765625 0.359375 1.15625 1.0625q0.40625 0.6875 0.40625 1.6875q0 0.953125 -0.40625 1.671875q-0.390625 0.703125 -1.15625 1.0625q-0.765625 0.359375 -1.890625 0.359375l-2.875 0l0 4.125l-1.203125 0zm1.203125 -5.125l2.734375 0q1.1875 0 1.796875 -0.53125q0.609375 -0.546875 0.609375 -1.5625q0 -1.046875 -0.609375 -1.578125q-0.609375 -0.546875 -1.796875 -0.546875l-2.734375 0l0 4.21875zm10.345703 5.25q-0.875 0 -1.4375 -0.3125q-0.5625 -0.3125 -0.859375 -0.9375q-0.28125 -0.640625 -0.28125 -1.578125l0 -4.421875l1.1875 0l0 4.40625q0 0.640625 0.171875 1.0625q0.171875 0.40625 0.53125 0.609375q0.375 0.203125 0.921875 0.203125q0.609375 0 1.0625 -0.28125q0.453125 -0.28125 0.71875 -0.78125q0.265625 -0.5 0.265625 -1.171875l0 -4.046875l1.1875 0l0 7.125l-1.15625 0l0 -1.640625l0.1875 0q-0.296875 0.859375 -0.96875 1.3125q-0.65625 0.453125 -1.53125 0.453125zm9.300293 0q-0.96875 0 -1.671875 -0.484375q-0.6875 -0.5 -0.921875 -1.34375l0.140625 0l0 1.703125l-1.15625 0l0 -10.328125l1.1875 0l0 4.859375l-0.171875 0q0.25 -0.8125 0.9375 -1.296875q0.6875 -0.484375 1.65625 -0.484375q0.96875 0 1.671875 0.453125q0.703125 0.4375 1.09375 1.265625q0.390625 0.828125 0.390625 1.96875q0 1.125 -0.390625 1.953125q-0.390625 0.828125 -1.109375 1.28125q-0.703125 0.453125 -1.65625 0.453125zm-0.25 -0.953125q1.015625 0 1.609375 -0.703125q0.59375 -0.71875 0.59375 -2.03125q0 -1.328125 -0.59375 -2.03125q-0.59375 -0.703125 -1.609375 -0.703125q-1.0 0 -1.609375 0.703125q-0.59375 0.703125 -0.59375 2.03125q0 1.3125 0.59375 2.03125q0.609375 0.703125 1.609375 0.703125zm7.3726807 0.953125q-1.078125 0 -1.640625 -0.640625q-0.546875 -0.640625 -0.546875 -1.84375l0 -7.96875l1.1875 0l0 7.875q0 0.515625 0.140625 0.875q0.140625 0.34375 0.421875 0.53125q0.28125 0.171875 0.6875 0.171875q0.171875 0 0.34375 -0.015625q0.171875 -0.03125 0.3125 -0.078125l-0.03125 1.0q-0.234375 0.046875 -0.453125 0.0625q-0.203125 0.03125 -0.421875 0.03125zm2.0101318 -9.015625l0 -1.34375l1.46875 0l0 1.34375l-1.46875 0zm0.140625 8.890625l0 -7.125l1.1875 0l0 7.125l-1.1875 0zm6.4315186 0.125q-1.078125 0 -1.859375 -0.46875q-0.765625 -0.46875 -1.1875 -1.296875q-0.421875 -0.84375 -0.421875 -1.96875q0 -1.125 0.421875 -1.9375q0.421875 -0.828125 1.1875 -1.265625q0.78125 -0.4375 1.859375 -0.4375q0.65625 0 1.296875 0.234375q0.640625 0.234375 1.0625 0.65625l-0.40625 0.859375q-0.421875 -0.40625 -0.9375 -0.59375q-0.5 -0.1875 -0.953125 -0.1875q-1.109375 0 -1.71875 0.703125q-0.59375 0.6875 -0.59375 1.984375q0 1.28125 0.59375 2.03125q0.609375 0.734375 1.71875 0.734375q0.453125 0 0.953125 -0.1875q0.515625 -0.203125 0.9375 -0.625l0.40625 0.859375q-0.421875 0.421875 -1.078125 0.671875q-0.640625 0.234375 -1.28125 0.234375z" fill-rule="nonzero"/><path fill="#000000" fill-opacity="0.0" d="m1137.6871 658.2596l76.85034 0l0 25.417358l-76.85034 0z" fill-rule="evenodd"/><path fill="#464646" d="m1202.0593 679.7569l0 -1.96875l-4.5 0l0 -1.375l4.828125 -6.984375l1.546875 0l0 6.8125l1.453125 0l0 1.546875l-1.453125 0l0 1.96875l-1.875 0zm0 -3.515625l0 -4.578125l0.4375 0l-3.46875 5.078125l0 -0.5l3.03125 0zm4.9500732 3.515625l5.0 -9.40625l0 0.640625l-5.453125 0l0 -1.5625l7.1875 0l0 1.40625l-4.671875 8.921875l-2.0625 0z" fill-rule="nonzero"/><path fill="#000000" fill-opacity="0.0" d="m65.125984 658.56616l807.65356 0l0 25.070862l-807.65356 0z" fill-rule="evenodd"/><path fill="#464646" d="m70.469734 661.84204q-2.015625 0 -3.078125 -1.0625q-1.0625 -1.078125 -1.0625 -3.15625l0 -6.234375l1.203125 0l0 6.1875q0 1.609375 0.75 2.40625q0.75 0.796875 2.1875 0.796875q1.453125 0 2.1875 -0.796875q0.734375 -0.796875 0.734375 -2.40625l0 -6.1875l1.203125 0l0 6.234375q0 2.078125 -1.046875 3.15625q-1.046875 1.0625 -3.078125 1.0625zm6.4354095 2.515625l0 -9.765625l1.15625 0l0 1.6875l-0.140625 0q0.234375 -0.828125 0.921875 -1.3125q0.703125 -0.5 1.671875 -0.5q0.953125 0 1.65625 0.453125q0.71875 0.4375 1.109375 1.265625q0.390625 0.828125 0.390625 1.96875q0 1.125 -0.390625 1.953125q-0.390625 0.828125 -1.09375 1.28125q-0.703125 0.453125 -1.671875 0.453125q-0.96875 0 -1.65625 -0.484375q-0.6875 -0.484375 -0.9375 -1.3125l0.171875 0l0 4.3125l-1.1875 0zm3.359375 -3.46875q1.015625 0 1.609375 -0.703125q0.59375 -0.71875 0.59375 -2.03125q0 -1.328125 -0.59375 -2.03125q-0.59375 -0.703125 -1.609375 -0.703125q-1.0 0 -1.609375 0.703125q-0.59375 0.703125 -0.59375 2.03125q0 1.3125 0.59375 2.03125q0.609375 0.703125 1.609375 0.703125zm7.904007 0.953125q-0.953125 0 -1.671875 -0.453125q-0.703125 -0.453125 -1.09375 -1.28125q-0.390625 -0.828125 -0.390625 -1.953125q0 -1.140625 0.390625 -1.96875q0.390625 -0.828125 1.09375 -1.265625q0.71875 -0.453125 1.671875 -0.453125q0.96875 0 1.65625 0.484375q0.6875 0.484375 0.921875 1.296875l-0.15625 0l0 -4.859375l1.1875 0l0 10.328125l-1.171875 0l0 -1.703125l0.15625 0q-0.234375 0.84375 -0.9375 1.34375q-0.6875 0.484375 -1.65625 0.484375zm0.25 -0.953125q1.0 0 1.59375 -0.703125q0.59375 -0.71875 0.59375 -2.03125q0 -1.328125 -0.59375 -2.03125q-0.59375 -0.703125 -1.59375 -0.703125q-1.0 0 -1.609375 0.703125q-0.59375 0.703125 -0.59375 2.03125q0 1.3125 0.59375 2.03125q0.609375 0.703125 1.609375 0.703125zm7.825882 0.953125q-0.734375 0 -1.3125 -0.28125q-0.578125 -0.28125 -0.921875 -0.78125q-0.328125 -0.5 -0.328125 -1.109375q0 -0.796875 0.390625 -1.25q0.40625 -0.453125 1.328125 -0.640625q0.9375 -0.203125 2.5625 -0.203125l0.65625 0l0 0.78125l-0.65625 0q-0.890625 0 -1.5 0.0625q-0.59375 0.0625 -0.953125 0.203125q-0.34375 0.140625 -0.484375 0.375q-0.140625 0.234375 -0.140625 0.59375q0 0.59375 0.40625 0.984375q0.421875 0.375 1.140625 0.375q0.59375 0 1.03125 -0.265625q0.453125 -0.28125 0.703125 -0.765625q0.265625 -0.484375 0.265625 -1.125l0 -1.671875q0 -0.90625 -0.375 -1.296875q-0.359375 -0.40625 -1.203125 -0.40625q-0.640625 0 -1.25 0.1875q-0.59375 0.171875 -1.21875 0.578125l-0.421875 -0.859375q0.390625 -0.265625 0.875 -0.453125q0.484375 -0.203125 1.0 -0.296875q0.53125 -0.109375 1.015625 -0.109375q0.921875 0 1.515625 0.296875q0.609375 0.296875 0.90625 0.90625q0.296875 0.609375 0.296875 1.5625l0 4.484375l-1.125 0l0 -1.65625l0.140625 0q-0.125 0.5625 -0.453125 0.953125q-0.328125 0.390625 -0.8125 0.609375q-0.484375 0.21875 -1.078125 0.21875zm8.377213 0q-1.25 0 -1.890625 -0.671875q-0.625 -0.671875 -0.625 -1.921875l0 -3.734375l-1.390625 0l0 -0.921875l1.390625 0l0 -2.1875l1.1875 0l0 2.1875l2.25 0l0 0.921875l-2.25 0l0 3.625q0 0.828125 0.34375 1.265625q0.359375 0.4375 1.15625 0.4375q0.234375 0 0.46875 -0.0625q0.234375 -0.0625 0.421875 -0.125l0.203125 0.921875q-0.1875 0.09375 -0.5625 0.171875q-0.359375 0.09375 -0.703125 0.09375zm5.415741 0q-1.140625 0 -1.953125 -0.4375q-0.8125 -0.453125 -1.265625 -1.265625q-0.4375 -0.828125 -0.4375 -1.96875q0 -1.109375 0.4375 -1.9375q0.4375 -0.828125 1.203125 -1.296875q0.78125 -0.46875 1.796875 -0.46875q0.96875 0 1.65625 0.421875q0.6875 0.421875 1.0625 1.203125q0.375 0.78125 0.375 1.859375l0 0.453125l-5.625 0l0 -0.78125l4.828125 0l-0.234375 0.1875q0 -1.171875 -0.53125 -1.8125q-0.515625 -0.65625 -1.5 -0.65625q-0.75 0 -1.28125 0.34375q-0.515625 0.34375 -0.78125 0.953125q-0.265625 0.609375 -0.265625 1.40625l0 0.09375q0 0.890625 0.28125 1.515625q0.296875 0.609375 0.859375 0.921875q0.578125 0.3125 1.375 0.3125q0.625 0 1.21875 -0.1875q0.59375 -0.203125 1.125 -0.65625l0.40625 0.84375q-0.484375 0.4375 -1.234375 0.703125q-0.75 0.25 -1.515625 0.25zm7.2971497 0q-0.953125 0 -1.671875 -0.453125q-0.703125 -0.453125 -1.09375 -1.28125q-0.390625 -0.828125 -0.390625 -1.953125q0 -1.140625 0.390625 -1.96875q0.390625 -0.828125 1.09375 -1.265625q0.71875 -0.453125 1.671875 -0.453125q0.96875 0 1.65625 0.484375q0.6875 0.484375 0.921875 1.296875l-0.15625 0l0 -4.859375l1.1875 0l0 10.328125l-1.171875 0l0 -1.703125l0.15625 0q-0.234375 0.84375 -0.9375 1.34375q-0.6875 0.484375 -1.65625 0.484375zm0.25 -0.953125q1.0 0 1.59375 -0.703125q0.59375 -0.71875 0.59375 -2.03125q0 -1.328125 -0.59375 -2.03125q-0.59375 -0.703125 -1.59375 -0.703125q-1.0 0 -1.609375 0.703125q-0.59375 0.703125 -0.59375 2.03125q0 1.3125 0.59375 2.03125q0.609375 0.703125 1.609375 0.703125zm5.388382 -4.796875l0 -1.5l1.5 0l0 1.5l-1.5 0zm0 5.625l0 -1.5l1.5 0l0 1.5l-1.5 0zm6.123955 0.109375l-0.078125 -1.015625l0.875 -0.0625q0.515625 -0.046875 0.84375 -0.25q0.34375 -0.21875 0.515625 -0.609375q0.171875 -0.40625 0.171875 -0.921875l0 -7.578125l1.203125 0l0 7.59375q0 0.828125 -0.296875 1.4375q-0.28125 0.609375 -0.859375 0.953125q-0.5625 0.328125 -1.421875 0.390625l-0.953125 0.0625zm8.170517 0.015625q-0.734375 0 -1.3125 -0.28125q-0.578125 -0.28125 -0.921875 -0.78125q-0.328125 -0.5 -0.328125 -1.109375q0 -0.796875 0.390625 -1.25q0.40625 -0.453125 1.328125 -0.640625q0.9375 -0.203125 2.5625 -0.203125l0.65625 0l0 0.78125l-0.65625 0q-0.890625 0 -1.5 0.0625q-0.59375 0.0625 -0.953125 0.203125q-0.34375 0.140625 -0.484375 0.375q-0.140625 0.234375 -0.140625 0.59375q0 0.59375 0.40625 0.984375q0.421875 0.375 1.140625 0.375q0.59375 0 1.03125 -0.265625q0.453125 -0.28125 0.703125 -0.765625q0.265625 -0.484375 0.265625 -1.125l0 -1.671875q0 -0.90625 -0.375 -1.296875q-0.359375 -0.40625 -1.203125 -0.40625q-0.640625 0 -1.25 0.1875q-0.59375 0.171875 -1.21875 0.578125l-0.421875 -0.859375q0.390625 -0.265625 0.875 -0.453125q0.484375 -0.203125 1.0 -0.296875q0.53125 -0.109375 1.015625 -0.109375q0.921875 0 1.515625 0.296875q0.609375 0.296875 0.90625 0.90625q0.296875 0.609375 0.296875 1.5625l0 4.484375l-1.125 0l0 -1.65625l0.140625 0q-0.125 0.5625 -0.453125 0.953125q-0.328125 0.390625 -0.8125 0.609375q-0.484375 0.21875 -1.078125 0.21875zm5.5178375 -0.125l0 -7.125l1.15625 0l0 1.578125l-0.15625 0q0.3125 -0.84375 1.0 -1.265625q0.703125 -0.4375 1.609375 -0.4375q0.84375 0 1.40625 0.296875q0.578125 0.296875 0.84375 0.9375q0.28125 0.625 0.28125 1.578125l0 4.4375l-1.1875 0l0 -4.375q0 -0.65625 -0.171875 -1.078125q-0.15625 -0.421875 -0.515625 -0.625q-0.359375 -0.203125 -0.9375 -0.203125q-0.640625 0 -1.125 0.28125q-0.484375 0.265625 -0.75 0.765625q-0.265625 0.5 -0.265625 1.171875l0 4.0625l-1.1875 0zm10.856033 0.125q-0.875 0 -1.4375 -0.3125q-0.5625 -0.3125 -0.859375 -0.9375q-0.28125 -0.640625 -0.28125 -1.578125l0 -4.421875l1.1875 0l0 4.40625q0 0.640625 0.171875 1.0625q0.171875 0.40625 0.53125 0.609375q0.375 0.203125 0.921875 0.203125q0.609375 0 1.0625 -0.28125q0.453125 -0.28125 0.71875 -0.78125q0.265625 -0.5 0.265625 -1.171875l0 -4.046875l1.1875 0l0 7.125l-1.15625 0l0 -1.640625l0.1875 0q-0.296875 0.859375 -0.96875 1.3125q-0.65625 0.453125 -1.53125 0.453125zm7.940933 0q-0.734375 0 -1.3125 -0.28125q-0.578125 -0.28125 -0.921875 -0.78125q-0.328125 -0.5 -0.328125 -1.109375q0 -0.796875 0.390625 -1.25q0.40625 -0.453125 1.328125 -0.640625q0.9375 -0.203125 2.5625 -0.203125l0.65625 0l0 0.78125l-0.65625 0q-0.890625 0 -1.5 0.0625q-0.59375 0.0625 -0.953125 0.203125q-0.34375 0.140625 -0.484375 0.375q-0.140625 0.234375 -0.140625 0.59375q0 0.59375 0.40625 0.984375q0.421875 0.375 1.140625 0.375q0.59375 0 1.03125 -0.265625q0.453125 -0.28125 0.703125 -0.765625q0.265625 -0.484375 0.265625 -1.125l0 -1.671875q0 -0.90625 -0.375 -1.296875q-0.359375 -0.40625 -1.203125 -0.40625q-0.640625 0 -1.25 0.1875q-0.59375 0.171875 -1.21875 0.578125l-0.421875 -0.859375q0.390625 -0.265625 0.875 -0.453125q0.484375 -0.203125 1.0 -0.296875q0.53125 -0.109375 1.015625 -0.109375q0.921875 0 1.515625 0.296875q0.609375 0.296875 0.90625 0.90625q0.296875 0.609375 0.296875 1.5625l0 4.484375l-1.125 0l0 -1.65625l0.140625 0q-0.125 0.5625 -0.453125 0.953125q-0.328125 0.390625 -0.8125 0.609375q-0.484375 0.21875 -1.078125 0.21875zm5.5178375 -0.125l0 -7.125l1.15625 0l0 1.6875l-0.140625 0q0.25 -0.859375 0.859375 -1.3125q0.625 -0.453125 1.625 -0.515625l0.4375 -0.046875l0.078125 1.03125l-0.75 0.078125q-0.984375 0.09375 -1.53125 0.640625q-0.53125 0.546875 -0.53125 1.5l0 4.0625l-1.203125 0zm6.515091 2.640625l1.328125 -3.0l0 0.5l-3.125 -7.265625l1.296875 0l2.546875 6.25l-0.390625 0l2.578125 -6.25l1.25 0l-4.234375 9.765625l-1.25 0zm10.675018 -2.640625l0 -0.90625l3.53125 -3.8125q0.5 -0.546875 0.8125 -1.015625q0.3125 -0.484375 0.453125 -0.9375q0.15625 -0.453125 0.15625 -0.921875q0 -0.875 -0.546875 -1.328125q-0.53125 -0.46875 -1.5625 -0.46875q-0.78125 0 -1.46875 0.28125q-0.671875 0.28125 -1.296875 0.890625l-0.453125 -0.9375q0.578125 -0.59375 1.453125 -0.953125q0.890625 -0.359375 1.875 -0.359375q1.046875 0 1.75 0.328125q0.71875 0.328125 1.078125 0.953125q0.375 0.609375 0.375 1.5q0 0.484375 -0.109375 0.9375q-0.109375 0.4375 -0.34375 0.890625q-0.21875 0.4375 -0.5625 0.90625q-0.34375 0.46875 -0.828125 0.96875l-3.109375 3.296875l0 -0.34375l5.390625 0l0 1.03125l-6.59375 0zm11.871902 0.125q-1.171875 0 -1.984375 -0.59375q-0.8125 -0.609375 -1.21875 -1.796875q-0.40625 -1.1875 -0.40625 -2.90625q0 -1.734375 0.40625 -2.90625q0.40625 -1.1875 1.21875 -1.78125q0.8125 -0.609375 1.984375 -0.609375q1.1875 0 2.0 0.609375q0.8125 0.59375 1.21875 1.765625q0.40625 1.171875 0.40625 2.90625q0 1.734375 -0.40625 2.921875q-0.40625 1.1875 -1.21875 1.796875q-0.8125 0.59375 -2.0 0.59375zm0 -1.03125q1.234375 0 1.828125 -1.03125q0.59375 -1.046875 0.59375 -3.25q0 -2.203125 -0.59375 -3.21875q-0.578125 -1.015625 -1.828125 -1.015625q-1.203125 0 -1.8125 1.03125q-0.59375 1.015625 -0.59375 3.203125q0 2.203125 0.59375 3.25q0.59375 1.03125 1.8125 1.03125zm5.7156525 0.90625l0 -0.90625l3.53125 -3.8125q0.5 -0.546875 0.8125 -1.015625q0.3125 -0.484375 0.453125 -0.9375q0.15625 -0.453125 0.15625 -0.921875q0 -0.875 -0.546875 -1.328125q-0.53125 -0.46875 -1.5625 -0.46875q-0.78125 0 -1.46875 0.28125q-0.671875 0.28125 -1.296875 0.890625l-0.453125 -0.9375q0.578125 -0.59375 1.453125 -0.953125q0.890625 -0.359375 1.875 -0.359375q1.046875 0 1.75 0.328125q0.71875 0.328125 1.078125 0.953125q0.375 0.609375 0.375 1.5q0 0.484375 -0.109375 0.9375q-0.109375 0.4375 -0.34375 0.890625q-0.21875 0.4375 -0.5625 0.90625q-0.34375 0.46875 -0.828125 0.96875l-3.109375 3.296875l0 -0.34375l5.390625 0l0 1.03125l-6.59375 0zm12.246902 0.125q-1.234375 0 -2.09375 -0.59375q-0.859375 -0.59375 -1.296875 -1.71875q-0.4375 -1.125 -0.4375 -2.71875q0 -1.796875 0.484375 -3.03125q0.5 -1.234375 1.4375 -1.875q0.953125 -0.65625 2.25 -0.65625q0.53125 0 1.078125 0.15625q0.546875 0.15625 1.015625 0.4375q0.484375 0.28125 0.8125 0.65625l-0.4375 0.9375q-0.546875 -0.578125 -1.1875 -0.84375q-0.625 -0.265625 -1.3125 -0.265625q-0.703125 0 -1.265625 0.265625q-0.546875 0.265625 -0.9375 0.796875q-0.390625 0.53125 -0.578125 1.328125q-0.1875 0.796875 -0.1875 1.859375l0 1.359375l-0.125 0q0.078125 -0.828125 0.484375 -1.4375q0.40625 -0.609375 1.03125 -0.9375q0.640625 -0.328125 1.421875 -0.328125q0.90625 0 1.609375 0.421875q0.703125 0.40625 1.09375 1.15625q0.40625 0.734375 0.40625 1.6875q0 0.96875 -0.421875 1.734375q-0.40625 0.75 -1.15625 1.1875q-0.734375 0.421875 -1.6875 0.421875zm-0.09375 -1.015625q0.640625 0 1.140625 -0.28125q0.5 -0.296875 0.78125 -0.8125q0.28125 -0.515625 0.28125 -1.203125q0 -0.671875 -0.28125 -1.171875q-0.28125 -0.515625 -0.78125 -0.8125q-0.484375 -0.296875 -1.140625 -0.296875q-0.640625 0 -1.140625 0.296875q-0.5 0.296875 -0.78125 0.8125q-0.265625 0.5 -0.265625 1.171875q0 0.6875 0.265625 1.203125q0.28125 0.515625 0.78125 0.8125q0.5 0.28125 1.140625 0.28125zm34.536575 0.890625l4.5625 -10.328125l1.015625 0l4.5624847 10.328125l-1.25 0l-1.265625 -2.953125l0.578125 0.3125l-6.2968597 0l0.59375 -0.3125l-1.25 2.953125l-1.25 0zm5.046875 -8.921875l-2.359375 5.546875l-0.34375 -0.28125l5.4218597 0l-0.328125 0.28125l-2.3593597 -5.546875l-0.03125 0zm8.178116 8.921875l-3.0625 -7.125l1.296875 0l2.546875 6.25l-0.390625 0l2.59375 -6.25l1.21875 0l-3.078125 7.125l-1.125 0zm8.570343 0.125q-1.140625 0 -1.953125 -0.4375q-0.8125 -0.453125 -1.265625 -1.265625q-0.4375 -0.828125 -0.4375 -1.96875q0 -1.109375 0.4375 -1.9375q0.4375 -0.828125 1.203125 -1.296875q0.78125 -0.46875 1.796875 -0.46875q0.96875 0 1.65625 0.421875q0.6875 0.421875 1.0625 1.203125q0.375 0.78125 0.375 1.859375l0 0.453125l-5.625 0l0 -0.78125l4.828125 0l-0.234375 0.1875q0 -1.171875 -0.53125 -1.8125q-0.515625 -0.65625 -1.5 -0.65625q-0.75 0 -1.28125 0.34375q-0.515625 0.34375 -0.78125 0.953125q-0.265625 0.609375 -0.265625 1.40625l0 0.09375q0 0.890625 0.28125 1.515625q0.296875 0.609375 0.859375 0.921875q0.578125 0.3125 1.375 0.3125q0.625 0 1.21875 -0.1875q0.59375 -0.203125 1.125 -0.65625l0.40625 0.84375q-0.484375 0.4375 -1.234375 0.703125q-0.75 0.25 -1.515625 0.25zm4.5783997 -0.125l0 -7.125l1.15625 0l0 1.6875l-0.140625 0q0.25 -0.859375 0.859375 -1.3125q0.625 -0.453125 1.625 -0.515625l0.4375 -0.046875l0.078125 1.03125l-0.75 0.078125q-0.984375 0.09375 -1.53125 0.640625q-0.53125 0.546875 -0.53125 1.5l0 4.0625l-1.203125 0zm6.5150757 2.640625l1.328125 -3.0l0 0.5l-3.125 -7.265625l1.296875 0l2.546875 6.25l-0.390625 0l2.578125 -6.25l1.25 0l-4.234375 9.765625l-1.25 0zm10.643768 -2.640625l0 -10.328125l3.484375 0q1.6875 0 2.84375 0.59375q1.171875 0.59375 1.78125 1.75q0.609375 1.140625 0.609375 2.8125q0 1.671875 -0.609375 2.828125q-0.609375 1.15625 -1.78125 1.75q-1.15625 0.59375 -2.84375 0.59375l-3.484375 0zm1.203125 -1.03125l2.1875 0q2.046875 0 3.046875 -1.03125q1.0 -1.046875 1.0 -3.109375q0 -2.0625 -1.015625 -3.09375q-1.0 -1.046875 -3.03125 -1.046875l-2.1875 0l0 8.28125zm12.71875 1.15625q-1.140625 0 -1.953125 -0.4375q-0.8125 -0.453125 -1.265625 -1.265625q-0.4375 -0.828125 -0.4375 -1.96875q0 -1.109375 0.4375 -1.9375q0.4375 -0.828125 1.203125 -1.296875q0.78125 -0.46875 1.796875 -0.46875q0.96875 0 1.65625 0.421875q0.6875 0.421875 1.0625 1.203125q0.375 0.78125 0.375 1.859375l0 0.453125l-5.625 0l0 -0.78125l4.828125 0l-0.234375 0.1875q0 -1.171875 -0.53125 -1.8125q-0.515625 -0.65625 -1.5 -0.65625q-0.75 0 -1.28125 0.34375q-0.515625 0.34375 -0.78125 0.953125q-0.265625 0.609375 -0.265625 1.40625l0 0.09375q0 0.890625 0.28125 1.515625q0.296875 0.609375 0.859375 0.921875q0.578125 0.3125 1.375 0.3125q0.625 0 1.21875 -0.1875q0.59375 -0.203125 1.125 -0.65625l0.40625 0.84375q-0.484375 0.4375 -1.234375 0.703125q-0.75 0.25 -1.515625 0.25zm4.5783997 -0.125l0 -7.125l1.15625 0l0 1.578125l-0.15625 0q0.3125 -0.84375 1.0 -1.265625q0.703125 -0.4375 1.609375 -0.4375q0.84375 0 1.40625 0.296875q0.578125 0.296875 0.84375 0.9375q0.28125 0.625 0.28125 1.578125l0 4.4375l-1.1875 0l0 -4.375q0 -0.65625 -0.171875 -1.078125q-0.15625 -0.421875 -0.515625 -0.625q-0.359375 -0.203125 -0.9375 -0.203125q-0.640625 0 -1.125 0.28125q-0.484375 0.265625 -0.75 0.765625q-0.265625 0.5 -0.265625 1.171875l0 4.0625l-1.1875 0zm8.324768 0l0 -7.125l1.15625 0l0 1.578125l-0.15625 0q0.3125 -0.84375 1.0 -1.265625q0.703125 -0.4375 1.609375 -0.4375q0.84375 0 1.40625 0.296875q0.578125 0.296875 0.84375 0.9375q0.28125 0.625 0.28125 1.578125l0 4.4375l-1.1875 0l0 -4.375q0 -0.65625 -0.171875 -1.078125q-0.15625 -0.421875 -0.515625 -0.625q-0.359375 -0.203125 -0.9375 -0.203125q-0.640625 0 -1.125 0.28125q-0.484375 0.265625 -0.75 0.765625q-0.265625 0.5 -0.265625 1.171875l0 4.0625l-1.1875 0zm8.184174 -8.890625l0 -1.34375l1.46875 0l0 1.34375l-1.46875 0zm0.140625 8.890625l0 -7.125l1.1875 0l0 7.125l-1.1875 0zm5.8065186 0.125q-0.5625 0 -1.078125 -0.109375q-0.515625 -0.109375 -0.96875 -0.296875q-0.4375 -0.203125 -0.765625 -0.484375l0.375 -0.828125q0.359375 0.28125 0.765625 0.46875q0.40625 0.171875 0.828125 0.265625q0.4375 0.078125 0.875 0.078125q0.828125 0 1.25 -0.296875q0.4375 -0.3125 0.4375 -0.84375q0 -0.40625 -0.28125 -0.640625q-0.28125 -0.25 -0.875 -0.390625l-1.34375 -0.28125q-0.921875 -0.1875 -1.375 -0.65625q-0.4375 -0.484375 -0.4375 -1.21875q0 -0.671875 0.34375 -1.140625q0.34375 -0.484375 0.96875 -0.734375q0.640625 -0.265625 1.46875 -0.265625q0.5 0 0.953125 0.109375q0.453125 0.09375 0.859375 0.296875q0.40625 0.1875 0.703125 0.484375l-0.40625 0.828125q-0.265625 -0.265625 -0.625 -0.4375q-0.34375 -0.1875 -0.71875 -0.28125q-0.375 -0.09375 -0.765625 -0.09375q-0.8125 0 -1.25 0.328125q-0.421875 0.3125 -0.421875 0.84375q0 0.40625 0.265625 0.671875q0.265625 0.265625 0.828125 0.375l1.328125 0.28125q0.953125 0.203125 1.421875 0.65625q0.484375 0.453125 0.484375 1.203125q0 0.65625 -0.359375 1.140625q-0.34375 0.46875 -0.984375 0.71875q-0.640625 0.25 -1.5 0.25zm7.6121826 0q-1.046875 0 -1.8125 -0.453125q-0.75 -0.453125 -1.171875 -1.28125q-0.421875 -0.828125 -0.421875 -1.953125q0 -1.125 0.421875 -1.953125q0.421875 -0.828125 1.171875 -1.28125q0.765625 -0.453125 1.8125 -0.453125q1.03125 0 1.796875 0.453125q0.765625 0.453125 1.171875 1.28125q0.421875 0.828125 0.421875 1.953125q0 1.125 -0.421875 1.953125q-0.40625 0.828125 -1.171875 1.28125q-0.765625 0.453125 -1.796875 0.453125zm0 -0.953125q1.0 0 1.59375 -0.703125q0.59375 -0.71875 0.59375 -2.046875q0 -1.3125 -0.59375 -2.015625q-0.59375 -0.703125 -1.59375 -0.703125q-1.0 0 -1.609375 0.703125q-0.59375 0.703125 -0.59375 2.015625q0 1.328125 0.59375 2.046875q0.609375 0.703125 1.609375 0.703125zm5.180176 0.828125l0 -7.125l1.15625 0l0 1.578125l-0.15625 0q0.3125 -0.84375 1.0 -1.265625q0.703125 -0.4375 1.609375 -0.4375q0.84375 0 1.40625 0.296875q0.578125 0.296875 0.84375 0.9375q0.28125 0.625 0.28125 1.578125l0 4.4375l-1.1875 0l0 -4.375q0 -0.65625 -0.171875 -1.078125q-0.15625 -0.421875 -0.515625 -0.625q-0.359375 -0.203125 -0.9375 -0.203125q-0.640625 0 -1.125 0.28125q-0.484375 0.265625 -0.75 0.765625q-0.265625 0.5 -0.265625 1.171875l0 4.0625l-1.1875 0zm12.263306 0l0 -10.328125l4.078125 0q1.125 0 1.890625 0.359375q0.765625 0.359375 1.15625 1.0625q0.40625 0.6875 0.40625 1.6875q0 0.953125 -0.40625 1.671875q-0.390625 0.703125 -1.15625 1.0625q-0.765625 0.359375 -1.890625 0.359375l-2.875 0l0 4.125l-1.203125 0zm1.203125 -5.125l2.734375 0q1.1875 0 1.796875 -0.53125q0.609375 -0.546875 0.609375 -1.5625q0 -1.046875 -0.609375 -1.578125q-0.609375 -0.546875 -1.796875 -0.546875l-2.734375 0l0 4.21875zm7.755768 5.125l0 -7.125l1.15625 0l0 1.6875l-0.140625 0q0.25 -0.859375 0.859375 -1.3125q0.625 -0.453125 1.625 -0.515625l0.4375 -0.046875l0.078125 1.03125l-0.75 0.078125q-0.984375 0.09375 -1.53125 0.640625q-0.53125 0.546875 -0.53125 1.5l0 4.0625l-1.203125 0zm8.377716 0.125q-1.140625 0 -1.953125 -0.4375q-0.8125 -0.453125 -1.265625 -1.265625q-0.4375 -0.828125 -0.4375 -1.96875q0 -1.109375 0.4375 -1.9375q0.4375 -0.828125 1.203125 -1.296875q0.78125 -0.46875 1.796875 -0.46875q0.96875 0 1.65625 0.421875q0.6875 0.421875 1.0625 1.203125q0.375 0.78125 0.375 1.859375l0 0.453125l-5.625 0l0 -0.78125l4.828125 0l-0.234375 0.1875q0 -1.171875 -0.53125 -1.8125q-0.515625 -0.65625 -1.5 -0.65625q-0.75 0 -1.28125 0.34375q-0.515625 0.34375 -0.78125 0.953125q-0.265625 0.609375 -0.265625 1.40625l0 0.09375q0 0.890625 0.28125 1.515625q0.296875 0.609375 0.859375 0.921875q0.578125 0.3125 1.375 0.3125q0.625 0 1.21875 -0.1875q0.59375 -0.203125 1.125 -0.65625l0.40625 0.84375q-0.484375 0.4375 -1.234375 0.703125q-0.75 0.25 -1.515625 0.25zm6.9846497 0q-0.5625 0 -1.078125 -0.109375q-0.515625 -0.109375 -0.96875 -0.296875q-0.4375 -0.203125 -0.765625 -0.484375l0.375 -0.828125q0.359375 0.28125 0.765625 0.46875q0.40625 0.171875 0.828125 0.265625q0.4375 0.078125 0.875 0.078125q0.828125 0 1.25 -0.296875q0.4375 -0.3125 0.4375 -0.84375q0 -0.40625 -0.28125 -0.640625q-0.28125 -0.25 -0.875 -0.390625l-1.34375 -0.28125q-0.921875 -0.1875 -1.375 -0.65625q-0.4375 -0.484375 -0.4375 -1.21875q0 -0.671875 0.34375 -1.140625q0.34375 -0.484375 0.96875 -0.734375q0.640625 -0.265625 1.46875 -0.265625q0.5 0 0.953125 0.109375q0.453125 0.09375 0.859375 0.296875q0.40625 0.1875 0.703125 0.484375l-0.40625 0.828125q-0.265625 -0.265625 -0.625 -0.4375q-0.34375 -0.1875 -0.71875 -0.28125q-0.375 -0.09375 -0.765625 -0.09375q-0.8125 0 -1.25 0.328125q-0.421875 0.3125 -0.421875 0.84375q0 0.40625 0.265625 0.671875q0.265625 0.265625 0.828125 0.375l1.328125 0.28125q0.953125 0.203125 1.421875 0.65625q0.484375 0.453125 0.484375 1.203125q0 0.65625 -0.359375 1.140625q-0.34375 0.46875 -0.984375 0.71875q-0.640625 0.25 -1.5 0.25zm7.8621826 0q-1.140625 0 -1.953125 -0.4375q-0.8125 -0.453125 -1.265625 -1.265625q-0.4375 -0.828125 -0.4375 -1.96875q0 -1.109375 0.4375 -1.9375q0.4375 -0.828125 1.203125 -1.296875q0.78125 -0.46875 1.796875 -0.46875q0.96875 0 1.65625 0.421875q0.6875 0.421875 1.0625 1.203125q0.375 0.78125 0.375 1.859375l0 0.453125l-5.625 0l0 -0.78125l4.828125 0l-0.234375 0.1875q0 -1.171875 -0.53125 -1.8125q-0.515625 -0.65625 -1.5 -0.65625q-0.75 0 -1.28125 0.34375q-0.515625 0.34375 -0.78125 0.953125q-0.265625 0.609375 -0.265625 1.40625l0 0.09375q0 0.890625 0.28125 1.515625q0.296875 0.609375 0.859375 0.921875q0.578125 0.3125 1.375 0.3125q0.625 0 1.21875 -0.1875q0.59375 -0.203125 1.125 -0.65625l0.40625 0.84375q-0.484375 0.4375 -1.234375 0.703125q-0.75 0.25 -1.515625 0.25zm4.5783997 -0.125l0 -7.125l1.15625 0l0 1.578125l-0.15625 0q0.3125 -0.84375 1.0 -1.265625q0.703125 -0.4375 1.609375 -0.4375q0.84375 0 1.40625 0.296875q0.578125 0.296875 0.84375 0.9375q0.28125 0.625 0.28125 1.578125l0 4.4375l-1.1875 0l0 -4.375q0 -0.65625 -0.171875 -1.078125q-0.15625 -0.421875 -0.515625 -0.625q-0.359375 -0.203125 -0.9375 -0.203125q-0.640625 0 -1.125 0.28125q-0.484375 0.265625 -0.75 0.765625q-0.265625 0.5 -0.265625 1.171875l0 4.0625l-1.1875 0zm11.184143 0.125q-1.25 0 -1.890625 -0.671875q-0.625 -0.671875 -0.625 -1.921875l0 -3.734375l-1.390625 0l0 -0.921875l1.390625 0l0 -2.1875l1.1875 0l0 2.1875l2.25 0l0 0.921875l-2.25 0l0 3.625q0 0.828125 0.34375 1.265625q0.359375 0.4375 1.15625 0.4375q0.234375 0 0.46875 -0.0625q0.234375 -0.0625 0.421875 -0.125l0.203125 0.921875q-0.1875 0.09375 -0.5625 0.171875q-0.359375 0.09375 -0.703125 0.09375zm4.5203247 0q-0.734375 0 -1.3125 -0.28125q-0.578125 -0.28125 -0.921875 -0.78125q-0.328125 -0.5 -0.328125 -1.109375q0 -0.796875 0.390625 -1.25q0.40625 -0.453125 1.328125 -0.640625q0.9375 -0.203125 2.5625 -0.203125l0.65625 0l0 0.78125l-0.65625 0q-0.890625 0 -1.5 0.0625q-0.59375 0.0625 -0.953125 0.203125q-0.34375 0.140625 -0.484375 0.375q-0.140625 0.234375 -0.140625 0.59375q0 0.59375 0.40625 0.984375q0.421875 0.375 1.140625 0.375q0.59375 0 1.03125 -0.265625q0.453125 -0.28125 0.703125 -0.765625q0.265625 -0.484375 0.265625 -1.125l0 -1.671875q0 -0.90625 -0.375 -1.296875q-0.359375 -0.40625 -1.203125 -0.40625q-0.640625 0 -1.25 0.1875q-0.59375 0.171875 -1.21875 0.578125l-0.421875 -0.859375q0.390625 -0.265625 0.875 -0.453125q0.484375 -0.203125 1.0 -0.296875q0.53125 -0.109375 1.015625 -0.109375q0.921875 0 1.515625 0.296875q0.609375 0.296875 0.90625 0.90625q0.296875 0.609375 0.296875 1.5625l0 4.484375l-1.125 0l0 -1.65625l0.140625 0q-0.125 0.5625 -0.453125 0.953125q-0.328125 0.390625 -0.8125 0.609375q-0.484375 0.21875 -1.078125 0.21875zm8.377197 0q-1.25 0 -1.890625 -0.671875q-0.625 -0.671875 -0.625 -1.921875l0 -3.734375l-1.390625 0l0 -0.921875l1.390625 0l0 -2.1875l1.1875 0l0 2.1875l2.25 0l0 0.921875l-2.25 0l0 3.625q0 0.828125 0.34375 1.265625q0.359375 0.4375 1.15625 0.4375q0.234375 0 0.46875 -0.0625q0.234375 -0.0625 0.421875 -0.125l0.203125 0.921875q-0.1875 0.09375 -0.5625 0.171875q-0.359375 0.09375 -0.703125 0.09375zm2.1296997 -9.015625l0 -1.34375l1.46875 0l0 1.34375l-1.46875 0zm0.140625 8.890625l0 -7.125l1.1875 0l0 7.125l-1.1875 0zm6.3690186 0.125q-1.046875 0 -1.8125 -0.453125q-0.75 -0.453125 -1.171875 -1.28125q-0.421875 -0.828125 -0.421875 -1.953125q0 -1.125 0.421875 -1.953125q0.421875 -0.828125 1.171875 -1.28125q0.765625 -0.453125 1.8125 -0.453125q1.03125 0 1.796875 0.453125q0.765625 0.453125 1.171875 1.28125q0.421875 0.828125 0.421875 1.953125q0 1.125 -0.421875 1.953125q-0.40625 0.828125 -1.171875 1.28125q-0.765625 0.453125 -1.796875 0.453125zm0 -0.953125q1.0 0 1.59375 -0.703125q0.59375 -0.71875 0.59375 -2.046875q0 -1.3125 -0.59375 -2.015625q-0.59375 -0.703125 -1.59375 -0.703125q-1.0 0 -1.609375 0.703125q-0.59375 0.703125 -0.59375 2.015625q0 1.328125 0.59375 2.046875q0.609375 0.703125 1.609375 0.703125zm5.180176 0.828125l0 -7.125l1.15625 0l0 1.578125l-0.15625 0q0.3125 -0.84375 1.0 -1.265625q0.703125 -0.4375 1.609375 -0.4375q0.84375 0 1.40625 0.296875q0.578125 0.296875 0.84375 0.9375q0.28125 0.625 0.28125 1.578125l0 4.4375l-1.1875 0l0 -4.375q0 -0.65625 -0.171875 -1.078125q-0.15625 -0.421875 -0.515625 -0.625q-0.359375 -0.203125 -0.9375 -0.203125q-0.640625 0 -1.125 0.28125q-0.484375 0.265625 -0.75 0.765625q-0.265625 0.5 -0.265625 1.171875l0 4.0625l-1.1875 0zm14.794556 0l0 -9.296875l-3.75 0l0 -1.03125l8.71875 0l0 1.03125l-3.75 0l0 9.296875l-1.21875 0zm8.22406 0.125q-1.140625 0 -1.953125 -0.4375q-0.8125 -0.453125 -1.265625 -1.265625q-0.4375 -0.828125 -0.4375 -1.96875q0 -1.109375 0.4375 -1.9375q0.4375 -0.828125 1.203125 -1.296875q0.78125 -0.46875 1.796875 -0.46875q0.96875 0 1.65625 0.421875q0.6875 0.421875 1.0625 1.203125q0.375 0.78125 0.375 1.859375l0 0.453125l-5.625 0l0 -0.78125l4.828125 0l-0.234375 0.1875q0 -1.171875 -0.53125 -1.8125q-0.515625 -0.65625 -1.5 -0.65625q-0.75 0 -1.28125 0.34375q-0.515625 0.34375 -0.78125 0.953125q-0.265625 0.609375 -0.265625 1.40625l0 0.09375q0 0.890625 0.28125 1.515625q0.296875 0.609375 0.859375 0.921875q0.578125 0.3125 1.375 0.3125q0.625 0 1.21875 -0.1875q0.59375 -0.203125 1.125 -0.65625l0.40625 0.84375q-0.484375 0.4375 -1.234375 0.703125q-0.75 0.25 -1.515625 0.25zm4.6096497 -0.125l0 -7.125l1.15625 0l0 1.578125l-0.15625 0q0.171875 -0.53125 0.515625 -0.921875q0.34375 -0.390625 0.8125 -0.578125q0.484375 -0.203125 1.0625 -0.203125q0.90625 0 1.46875 0.4375q0.5625 0.421875 0.75 1.328125l-0.21875 0q0.265625 -0.8125 0.9375 -1.28125q0.6875 -0.484375 1.609375 -0.484375q0.796875 0 1.3125 0.3125q0.53125 0.296875 0.796875 0.921875q0.265625 0.625 0.265625 1.578125l0 4.4375l-1.1875 0l0 -4.375q0 -0.984375 -0.34375 -1.4375q-0.34375 -0.46875 -1.140625 -0.46875q-0.578125 0 -1.015625 0.28125q-0.421875 0.265625 -0.65625 0.78125q-0.21875 0.5 -0.21875 1.1875l0 4.03125l-1.1875 0l0 -4.375q0 -0.984375 -0.34375 -1.4375q-0.34375 -0.46875 -1.140625 -0.46875q-0.578125 0 -1.015625 0.28125q-0.421875 0.265625 -0.65625 0.78125q-0.21875 0.5 -0.21875 1.1875l0 4.03125l-1.1875 0zm12.514557 2.640625l0 -9.765625l1.15625 0l0 1.6875l-0.140625 0q0.234375 -0.828125 0.921875 -1.3125q0.703125 -0.5 1.671875 -0.5q0.953125 0 1.65625 0.453125q0.71875 0.4375 1.109375 1.265625q0.390625 0.828125 0.390625 1.96875q0 1.125 -0.390625 1.953125q-0.390625 0.828125 -1.09375 1.28125q-0.703125 0.453125 -1.671875 0.453125q-0.96875 0 -1.65625 -0.484375q-0.6875 -0.484375 -0.9375 -1.3125l0.171875 0l0 4.3125l-1.1875 0zm3.359375 -3.46875q1.015625 0 1.609375 -0.703125q0.59375 -0.71875 0.59375 -2.03125q0 -1.328125 -0.59375 -2.03125q-0.59375 -0.703125 -1.609375 -0.703125q-1.0 0 -1.609375 0.703125q-0.59375 0.703125 -0.59375 2.03125q0 1.3125 0.59375 2.03125q0.609375 0.703125 1.609375 0.703125zm7.3727417 0.953125q-1.078125 0 -1.640625 -0.640625q-0.546875 -0.640625 -0.546875 -1.84375l0 -7.96875l1.1875 0l0 7.875q0 0.515625 0.140625 0.875q0.140625 0.34375 0.421875 0.53125q0.28125 0.171875 0.6875 0.171875q0.171875 0 0.34375 -0.015625q0.171875 -0.03125 0.3125 -0.078125l-0.03125 1.0q-0.234375 0.046875 -0.453125 0.0625q-0.203125 0.03125 -0.421875 0.03125zm4.400757 0q-0.734375 0 -1.3125 -0.28125q-0.578125 -0.28125 -0.921875 -0.78125q-0.328125 -0.5 -0.328125 -1.109375q0 -0.796875 0.390625 -1.25q0.40625 -0.453125 1.328125 -0.640625q0.9375 -0.203125 2.5625 -0.203125l0.65625 0l0 0.78125l-0.65625 0q-0.890625 0 -1.5 0.0625q-0.59375 0.0625 -0.953125 0.203125q-0.34375 0.140625 -0.484375 0.375q-0.140625 0.234375 -0.140625 0.59375q0 0.59375 0.40625 0.984375q0.421875 0.375 1.140625 0.375q0.59375 0 1.03125 -0.265625q0.453125 -0.28125 0.703125 -0.765625q0.265625 -0.484375 0.265625 -1.125l0 -1.671875q0 -0.90625 -0.375 -1.296875q-0.359375 -0.40625 -1.203125 -0.40625q-0.640625 0 -1.25 0.1875q-0.59375 0.171875 -1.21875 0.578125l-0.421875 -0.859375q0.390625 -0.265625 0.875 -0.453125q0.484375 -0.203125 1.0 -0.296875q0.53125 -0.109375 1.015625 -0.109375q0.921875 0 1.515625 0.296875q0.609375 0.296875 0.90625 0.90625q0.296875 0.609375 0.296875 1.5625l0 4.484375l-1.125 0l0 -1.65625l0.140625 0q-0.125 0.5625 -0.453125 0.953125q-0.328125 0.390625 -0.8125 0.609375q-0.484375 0.21875 -1.078125 0.21875zm8.377197 0q-1.25 0 -1.890625 -0.671875q-0.625 -0.671875 -0.625 -1.921875l0 -3.734375l-1.390625 0l0 -0.921875l1.390625 0l0 -2.1875l1.1875 0l0 2.1875l2.25 0l0 0.921875l-2.25 0l0 3.625q0 0.828125 0.34375 1.265625q0.359375 0.4375 1.15625 0.4375q0.234375 0 0.46875 -0.0625q0.234375 -0.0625 0.421875 -0.125l0.203125 0.921875q-0.1875 0.09375 -0.5625 0.171875q-0.359375 0.09375 -0.703125 0.09375zm5.415741 0q-1.140625 0 -1.953125 -0.4375q-0.8125 -0.453125 -1.265625 -1.265625q-0.4375 -0.828125 -0.4375 -1.96875q0 -1.109375 0.4375 -1.9375q0.4375 -0.828125 1.203125 -1.296875q0.78125 -0.46875 1.796875 -0.46875q0.96875 0 1.65625 0.421875q0.6875 0.421875 1.0625 1.203125q0.375 0.78125 0.375 1.859375l0 0.453125l-5.625 0l0 -0.78125l4.828125 0l-0.234375 0.1875q0 -1.171875 -0.53125 -1.8125q-0.515625 -0.65625 -1.5 -0.65625q-0.75 0 -1.28125 0.34375q-0.515625 0.34375 -0.78125 0.953125q-0.265625 0.609375 -0.265625 1.40625l0 0.09375q0 0.890625 0.28125 1.515625q0.296875 0.609375 0.859375 0.921875q0.578125 0.3125 1.375 0.3125q0.625 0 1.21875 -0.1875q0.59375 -0.203125 1.125 -0.65625l0.40625 0.84375q-0.484375 0.4375 -1.234375 0.703125q-0.75 0.25 -1.515625 0.25zm12.579437 0q-2.015625 0 -3.078125 -1.0625q-1.0625 -1.078125 -1.0625 -3.15625l0 -6.234375l1.203125 0l0 6.1875q0 1.609375 0.75 2.40625q0.75 0.796875 2.1875 0.796875q1.453125 0 2.1875 -0.796875q0.734375 -0.796875 0.734375 -2.40625l0 -6.1875l1.203125 0l0 6.234375q0 2.078125 -1.046875 3.15625q-1.046875 1.0625 -3.078125 1.0625zm6.435425 2.515625l0 -9.765625l1.15625 0l0 1.6875l-0.140625 0q0.234375 -0.828125 0.921875 -1.3125q0.703125 -0.5 1.671875 -0.5q0.953125 0 1.65625 0.453125q0.71875 0.4375 1.109375 1.265625q0.390625 0.828125 0.390625 1.96875q0 1.125 -0.390625 1.953125q-0.390625 0.828125 -1.09375 1.28125q-0.703125 0.453125 -1.671875 0.453125q-0.96875 0 -1.65625 -0.484375q-0.6875 -0.484375 -0.9375 -1.3125l0.171875 0l0 4.3125l-1.1875 0zm3.359375 -3.46875q1.015625 0 1.609375 -0.703125q0.59375 -0.71875 0.59375 -2.03125q0 -1.328125 -0.59375 -2.03125q-0.59375 -0.703125 -1.609375 -0.703125q-1.0 0 -1.609375 0.703125q-0.59375 0.703125 -0.59375 2.03125q0 1.3125 0.59375 2.03125q0.609375 0.703125 1.609375 0.703125zm7.9039917 0.953125q-0.953125 0 -1.671875 -0.453125q-0.703125 -0.453125 -1.09375 -1.28125q-0.390625 -0.828125 -0.390625 -1.953125q0 -1.140625 0.390625 -1.96875q0.390625 -0.828125 1.09375 -1.265625q0.71875 -0.453125 1.671875 -0.453125q0.96875 0 1.65625 0.484375q0.6875 0.484375 0.921875 1.296875l-0.15625 0l0 -4.859375l1.1875 0l0 10.328125l-1.171875 0l0 -1.703125l0.15625 0q-0.234375 0.84375 -0.9375 1.34375q-0.6875 0.484375 -1.65625 0.484375zm0.25 -0.953125q1.0 0 1.59375 -0.703125q0.59375 -0.71875 0.59375 -2.03125q0 -1.328125 -0.59375 -2.03125q-0.59375 -0.703125 -1.59375 -0.703125q-1.0 0 -1.609375 0.703125q-0.59375 0.703125 -0.59375 2.03125q0 1.3125 0.59375 2.03125q0.609375 0.703125 1.609375 0.703125zm7.8258667 0.953125q-0.734375 0 -1.3125 -0.28125q-0.578125 -0.28125 -0.921875 -0.78125q-0.328125 -0.5 -0.328125 -1.109375q0 -0.796875 0.390625 -1.25q0.40625 -0.453125 1.328125 -0.640625q0.9375 -0.203125 2.5625 -0.203125l0.65625 0l0 0.78125l-0.65625 0q-0.890625 0 -1.5 0.0625q-0.59375 0.0625 -0.953125 0.203125q-0.34375 0.140625 -0.484375 0.375q-0.140625 0.234375 -0.140625 0.59375q0 0.59375 0.40625 0.984375q0.421875 0.375 1.140625 0.375q0.59375 0 1.03125 -0.265625q0.453125 -0.28125 0.703125 -0.765625q0.265625 -0.484375 0.265625 -1.125l0 -1.671875q0 -0.90625 -0.375 -1.296875q-0.359375 -0.40625 -1.203125 -0.40625q-0.640625 0 -1.25 0.1875q-0.59375 0.171875 -1.21875 0.578125l-0.421875 -0.859375q0.390625 -0.265625 0.875 -0.453125q0.484375 -0.203125 1.0 -0.296875q0.53125 -0.109375 1.015625 -0.109375q0.921875 0 1.515625 0.296875q0.609375 0.296875 0.90625 0.90625q0.296875 0.609375 0.296875 1.5625l0 4.484375l-1.125 0l0 -1.65625l0.140625 0q-0.125 0.5625 -0.453125 0.953125q-0.328125 0.390625 -0.8125 0.609375q-0.484375 0.21875 -1.078125 0.21875zm8.377197 0q-1.25 0 -1.890625 -0.671875q-0.625 -0.671875 -0.625 -1.921875l0 -3.734375l-1.390625 0l0 -0.921875l1.390625 0l0 -2.1875l1.1875 0l0 2.1875l2.25 0l0 0.921875l-2.25 0l0 3.625q0 0.828125 0.34375 1.265625q0.359375 0.4375 1.15625 0.4375q0.234375 0 0.46875 -0.0625q0.234375 -0.0625 0.421875 -0.125l0.203125 0.921875q-0.1875 0.09375 -0.5625 0.171875q-0.359375 0.09375 -0.703125 0.09375zm5.4157715 0q-1.140625 0 -1.953125 -0.4375q-0.8125 -0.453125 -1.265625 -1.265625q-0.4375 -0.828125 -0.4375 -1.96875q0 -1.109375 0.4375 -1.9375q0.4375 -0.828125 1.203125 -1.296875q0.78125 -0.46875 1.796875 -0.46875q0.96875 0 1.65625 0.421875q0.6875 0.421875 1.0625 1.203125q0.375 0.78125 0.375 1.859375l0 0.453125l-5.625 0l0 -0.78125l4.828125 0l-0.234375 0.1875q0 -1.171875 -0.53125 -1.8125q-0.515625 -0.65625 -1.5 -0.65625q-0.75 0 -1.28125 0.34375q-0.515625 0.34375 -0.78125 0.953125q-0.265625 0.609375 -0.265625 1.40625l0 0.09375q0 0.890625 0.28125 1.515625q0.296875 0.609375 0.859375 0.921875q0.578125 0.3125 1.375 0.3125q0.625 0 1.21875 -0.1875q0.59375 -0.203125 1.125 -0.65625l0.40625 0.84375q-0.484375 0.4375 -1.234375 0.703125q-0.75 0.25 -1.515625 0.25zm7.297119 0q-0.953125 0 -1.671875 -0.453125q-0.703125 -0.453125 -1.09375 -1.28125q-0.390625 -0.828125 -0.390625 -1.953125q0 -1.140625 0.390625 -1.96875q0.390625 -0.828125 1.09375 -1.265625q0.71875 -0.453125 1.671875 -0.453125q0.96875 0 1.65625 0.484375q0.6875 0.484375 0.921875 1.296875l-0.15625 0l0 -4.859375l1.1875 0l0 10.328125l-1.171875 0l0 -1.703125l0.15625 0q-0.234375 0.84375 -0.9375 1.34375q-0.6875 0.484375 -1.65625 0.484375zm0.25 -0.953125q1.0 0 1.59375 -0.703125q0.59375 -0.71875 0.59375 -2.03125q0 -1.328125 -0.59375 -2.03125q-0.59375 -0.703125 -1.59375 -0.703125q-1.0 0 -1.609375 0.703125q-0.59375 0.703125 -0.59375 2.03125q0 1.3125 0.59375 2.03125q0.609375 0.703125 1.609375 0.703125zm5.3883667 -4.796875l0 -1.5l1.5 0l0 1.5l-1.5 0zm0 5.625l0 -1.5l1.5 0l0 1.5l-1.5 0zm6.1239624 0.109375l-0.078125 -1.015625l0.875 -0.0625q0.515625 -0.046875 0.84375 -0.25q0.34375 -0.21875 0.515625 -0.609375q0.171875 -0.40625 0.171875 -0.921875l0 -7.578125l1.203125 0l0 7.59375q0 0.828125 -0.296875 1.4375q-0.28125 0.609375 -0.859375 0.953125q-0.5625 0.328125 -1.421875 0.390625l-0.953125 0.0625zm8.170532 0.015625q-0.734375 0 -1.3125 -0.28125q-0.578125 -0.28125 -0.921875 -0.78125q-0.328125 -0.5 -0.328125 -1.109375q0 -0.796875 0.390625 -1.25q0.40625 -0.453125 1.328125 -0.640625q0.9375 -0.203125 2.5625 -0.203125l0.65625 0l0 0.78125l-0.65625 0q-0.890625 0 -1.5 0.0625q-0.59375 0.0625 -0.953125 0.203125q-0.34375 0.140625 -0.484375 0.375q-0.140625 0.234375 -0.140625 0.59375q0 0.59375 0.40625 0.984375q0.421875 0.375 1.140625 0.375q0.59375 0 1.03125 -0.265625q0.453125 -0.28125 0.703125 -0.765625q0.265625 -0.484375 0.265625 -1.125l0 -1.671875q0 -0.90625 -0.375 -1.296875q-0.359375 -0.40625 -1.203125 -0.40625q-0.640625 0 -1.25 0.1875q-0.59375 0.171875 -1.21875 0.578125l-0.421875 -0.859375q0.390625 -0.265625 0.875 -0.453125q0.484375 -0.203125 1.0 -0.296875q0.53125 -0.109375 1.015625 -0.109375q0.921875 0 1.515625 0.296875q0.609375 0.296875 0.90625 0.90625q0.296875 0.609375 0.296875 1.5625l0 4.484375l-1.125 0l0 -1.65625l0.140625 0q-0.125 0.5625 -0.453125 0.953125q-0.328125 0.390625 -0.8125 0.609375q-0.484375 0.21875 -1.078125 0.21875zm5.5178223 -0.125l0 -7.125l1.15625 0l0 1.578125l-0.15625 0q0.3125 -0.84375 1.0 -1.265625q0.703125 -0.4375 1.609375 -0.4375q0.84375 0 1.40625 0.296875q0.578125 0.296875 0.84375 0.9375q0.28125 0.625 0.28125 1.578125l0 4.4375l-1.1875 0l0 -4.375q0 -0.65625 -0.171875 -1.078125q-0.15625 -0.421875 -0.515625 -0.625q-0.359375 -0.203125 -0.9375 -0.203125q-0.640625 0 -1.125 0.28125q-0.484375 0.265625 -0.75 0.765625q-0.265625 0.5 -0.265625 1.171875l0 4.0625l-1.1875 0zm10.856018 0.125q-0.875 0 -1.4375 -0.3125q-0.5625 -0.3125 -0.859375 -0.9375q-0.28125 -0.640625 -0.28125 -1.578125l0 -4.421875l1.1875 0l0 4.40625q0 0.640625 0.171875 1.0625q0.171875 0.40625 0.53125 0.609375q0.375 0.203125 0.921875 0.203125q0.609375 0 1.0625 -0.28125q0.453125 -0.28125 0.71875 -0.78125q0.265625 -0.5 0.265625 -1.171875l0 -4.046875l1.1875 0l0 7.125l-1.15625 0l0 -1.640625l0.1875 0q-0.296875 0.859375 -0.96875 1.3125q-0.65625 0.453125 -1.53125 0.453125zm7.940918 0q-0.734375 0 -1.3125 -0.28125q-0.578125 -0.28125 -0.921875 -0.78125q-0.328125 -0.5 -0.328125 -1.109375q0 -0.796875 0.390625 -1.25q0.40625 -0.453125 1.328125 -0.640625q0.9375 -0.203125 2.5625 -0.203125l0.65625 0l0 0.78125l-0.65625 0q-0.890625 0 -1.5 0.0625q-0.59375 0.0625 -0.953125 0.203125q-0.34375 0.140625 -0.484375 0.375q-0.140625 0.234375 -0.140625 0.59375q0 0.59375 0.40625 0.984375q0.421875 0.375 1.140625 0.375q0.59375 0 1.03125 -0.265625q0.453125 -0.28125 0.703125 -0.765625q0.265625 -0.484375 0.265625 -1.125l0 -1.671875q0 -0.90625 -0.375 -1.296875q-0.359375 -0.40625 -1.203125 -0.40625q-0.640625 0 -1.25 0.1875q-0.59375 0.171875 -1.21875 0.578125l-0.421875 -0.859375q0.390625 -0.265625 0.875 -0.453125q0.484375 -0.203125 1.0 -0.296875q0.53125 -0.109375 1.015625 -0.109375q0.921875 0 1.515625 0.296875q0.609375 0.296875 0.90625 0.90625q0.296875 0.609375 0.296875 1.5625l0 4.484375l-1.125 0l0 -1.65625l0.140625 0q-0.125 0.5625 -0.453125 0.953125q-0.328125 0.390625 -0.8125 0.609375q-0.484375 0.21875 -1.078125 0.21875zm5.5178223 -0.125l0 -7.125l1.15625 0l0 1.6875l-0.140625 0q0.25 -0.859375 0.859375 -1.3125q0.625 -0.453125 1.625 -0.515625l0.4375 -0.046875l0.078125 1.03125l-0.75 0.078125q-0.984375 0.09375 -1.53125 0.640625q-0.53125 0.546875 -0.53125 1.5l0 4.0625l-1.203125 0zm6.5150757 2.640625l1.328125 -3.0l0 0.5l-3.125 -7.265625l1.296875 0l2.546875 6.25l-0.390625 0l2.578125 -6.25l1.25 0l-4.234375 9.765625l-1.25 0zm10.674988 -2.640625l0 -0.90625l3.53125 -3.8125q0.5 -0.546875 0.8125 -1.015625q0.3125 -0.484375 0.453125 -0.9375q0.15625 -0.453125 0.15625 -0.921875q0 -0.875 -0.546875 -1.328125q-0.53125 -0.46875 -1.5625 -0.46875q-0.78125 0 -1.46875 0.28125q-0.671875 0.28125 -1.296875 0.890625l-0.453125 -0.9375q0.578125 -0.59375 1.453125 -0.953125q0.890625 -0.359375 1.875 -0.359375q1.046875 0 1.75 0.328125q0.71875 0.328125 1.078125 0.953125q0.375 0.609375 0.375 1.5q0 0.484375 -0.109375 0.9375q-0.109375 0.4375 -0.34375 0.890625q-0.21875 0.4375 -0.5625 0.90625q-0.34375 0.46875 -0.828125 0.96875l-3.109375 3.296875l0 -0.34375l5.390625 0l0 1.03125l-6.59375 0zm11.871887 0.125q-1.171875 0 -1.984375 -0.59375q-0.8125 -0.609375 -1.21875 -1.796875q-0.40625 -1.1875 -0.40625 -2.90625q0 -1.734375 0.40625 -2.90625q0.40625 -1.1875 1.21875 -1.78125q0.8125 -0.609375 1.984375 -0.609375q1.1875 0 2.0 0.609375q0.8125 0.59375 1.21875 1.765625q0.40625 1.171875 0.40625 2.90625q0 1.734375 -0.40625 2.921875q-0.40625 1.1875 -1.21875 1.796875q-0.8125 0.59375 -2.0 0.59375zm0 -1.03125q1.234375 0 1.828125 -1.03125q0.59375 -1.046875 0.59375 -3.25q0 -2.203125 -0.59375 -3.21875q-0.578125 -1.015625 -1.828125 -1.015625q-1.203125 0 -1.8125 1.03125q-0.59375 1.015625 -0.59375 3.203125q0 2.203125 0.59375 3.25q0.59375 1.03125 1.8125 1.03125zm5.715637 0.90625l0 -0.90625l3.53125 -3.8125q0.5 -0.546875 0.8125 -1.015625q0.3125 -0.484375 0.453125 -0.9375q0.15625 -0.453125 0.15625 -0.921875q0 -0.875 -0.546875 -1.328125q-0.53125 -0.46875 -1.5625 -0.46875q-0.78125 0 -1.46875 0.28125q-0.671875 0.28125 -1.296875 0.890625l-0.453125 -0.9375q0.578125 -0.59375 1.453125 -0.953125q0.890625 -0.359375 1.875 -0.359375q1.046875 0 1.75 0.328125q0.71875 0.328125 1.078125 0.953125q0.375 0.609375 0.375 1.5q0 0.484375 -0.109375 0.9375q-0.109375 0.4375 -0.34375 0.890625q-0.21875 0.4375 -0.5625 0.90625q-0.34375 0.46875 -0.828125 0.96875l-3.109375 3.296875l0 -0.34375l5.390625 0l0 1.03125l-6.59375 0zm12.246887 0.125q-1.234375 0 -2.09375 -0.59375q-0.859375 -0.59375 -1.296875 -1.71875q-0.4375 -1.125 -0.4375 -2.71875q0 -1.796875 0.484375 -3.03125q0.5 -1.234375 1.4375 -1.875q0.953125 -0.65625 2.25 -0.65625q0.53125 0 1.078125 0.15625q0.546875 0.15625 1.015625 0.4375q0.484375 0.28125 0.8125 0.65625l-0.4375 0.9375q-0.546875 -0.578125 -1.1875 -0.84375q-0.625 -0.265625 -1.3125 -0.265625q-0.703125 0 -1.265625 0.265625q-0.546875 0.265625 -0.9375 0.796875q-0.390625 0.53125 -0.578125 1.328125q-0.1875 0.796875 -0.1875 1.859375l0 1.359375l-0.125 0q0.078125 -0.828125 0.484375 -1.4375q0.40625 -0.609375 1.03125 -0.9375q0.640625 -0.328125 1.421875 -0.328125q0.90625 0 1.609375 0.421875q0.703125 0.40625 1.09375 1.15625q0.40625 0.734375 0.40625 1.6875q0 0.96875 -0.421875 1.734375q-0.40625 0.75 -1.15625 1.1875q-0.734375 0.421875 -1.6875 0.421875zm-0.09375 -1.015625q0.640625 0 1.140625 -0.28125q0.5 -0.296875 0.78125 -0.8125q0.28125 -0.515625 0.28125 -1.203125q0 -0.671875 -0.28125 -1.171875q-0.28125 -0.515625 -0.78125 -0.8125q-0.484375 -0.296875 -1.140625 -0.296875q-0.640625 0 -1.140625 0.296875q-0.5 0.296875 -0.78125 0.8125q-0.265625 0.5 -0.265625 1.171875q0 0.6875 0.265625 1.203125q0.28125 0.515625 0.78125 0.8125q0.5 0.28125 1.140625 0.28125zm34.536438 0.890625l4.5625 -10.328125l1.015625 0l4.5625 10.328125l-1.25 0l-1.265625 -2.953125l0.578125 0.3125l-6.296875 0l0.59375 -0.3125l-1.25 2.953125l-1.25 0zm5.046875 -8.921875l-2.359375 5.546875l-0.34375 -0.28125l5.421875 0l-0.328125 0.28125l-2.359375 -5.546875l-0.03125 0zm8.178101 8.921875l-3.0625 -7.125l1.296875 0l2.546875 6.25l-0.390625 0l2.59375 -6.25l1.21875 0l-3.078125 7.125l-1.125 0zm8.570374 0.125q-1.140625 0 -1.953125 -0.4375q-0.8125 -0.453125 -1.265625 -1.265625q-0.4375 -0.828125 -0.4375 -1.96875q0 -1.109375 0.4375 -1.9375q0.4375 -0.828125 1.203125 -1.296875q0.78125 -0.46875 1.796875 -0.46875q0.96875 0 1.65625 0.421875q0.6875 0.421875 1.0625 1.203125q0.375 0.78125 0.375 1.859375l0 0.453125l-5.625 0l0 -0.78125l4.828125 0l-0.234375 0.1875q0 -1.171875 -0.53125 -1.8125q-0.515625 -0.65625 -1.5 -0.65625q-0.75 0 -1.28125 0.34375q-0.515625 0.34375 -0.78125 0.953125q-0.265625 0.609375 -0.265625 1.40625l0 0.09375q0 0.890625 0.28125 1.515625q0.296875 0.609375 0.859375 0.921875q0.578125 0.3125 1.375 0.3125q0.625 0 1.21875 -0.1875q0.59375 -0.203125 1.125 -0.65625l0.40625 0.84375q-0.484375 0.4375 -1.234375 0.703125q-0.75 0.25 -1.515625 0.25zm4.578369 -0.125l0 -7.125l1.15625 0l0 1.6875l-0.140625 0q0.25 -0.859375 0.859375 -1.3125q0.625 -0.453125 1.625 -0.515625l0.4375 -0.046875l0.078125 1.03125l-0.75 0.078125q-0.984375 0.09375 -1.53125 0.640625q-0.53125 0.546875 -0.53125 1.5l0 4.0625l-1.203125 0zm6.5150757 2.640625l1.328125 -3.0l0 0.5l-3.125 -7.265625l1.296875 0l2.546875 6.25l-0.390625 0l2.578125 -6.25l1.25 0l-4.234375 9.765625l-1.25 0zm10.643738 -2.640625l0 -10.328125l3.484375 0q1.6875 0 2.84375 0.59375q1.171875 0.59375 1.78125 1.75q0.609375 1.140625 0.609375 2.8125q0 1.671875 -0.609375 2.828125q-0.609375 1.15625 -1.78125 1.75q-1.15625 0.59375 -2.84375 0.59375l-3.484375 0zm1.203125 -1.03125l2.1875 0q2.046875 0 3.046875 -1.03125q1.0 -1.046875 1.0 -3.109375q0 -2.0625 -1.015625 -3.09375q-1.0 -1.046875 -3.03125 -1.046875l-2.1875 0l0 8.28125zm12.71875 1.15625q-1.140625 0 -1.953125 -0.4375q-0.8125 -0.453125 -1.265625 -1.265625q-0.4375 -0.828125 -0.4375 -1.96875q0 -1.109375 0.4375 -1.9375q0.4375 -0.828125 1.203125 -1.296875q0.78125 -0.46875 1.796875 -0.46875q0.96875 0 1.65625 0.421875q0.6875 0.421875 1.0625 1.203125q0.375 0.78125 0.375 1.859375l0 0.453125l-5.625 0l0 -0.78125l4.828125 0l-0.234375 0.1875q0 -1.171875 -0.53125 -1.8125q-0.515625 -0.65625 -1.5 -0.65625q-0.75 0 -1.28125 0.34375q-0.515625 0.34375 -0.78125 0.953125q-0.265625 0.609375 -0.265625 1.40625l0 0.09375q0 0.890625 0.28125 1.515625q0.296875 0.609375 0.859375 0.921875q0.578125 0.3125 1.375 0.3125q0.625 0 1.21875 -0.1875q0.59375 -0.203125 1.125 -0.65625l0.40625 0.84375q-0.484375 0.4375 -1.234375 0.703125q-0.75 0.25 -1.515625 0.25zm4.578369 -0.125l0 -7.125l1.15625 0l0 1.578125l-0.15625 0q0.3125 -0.84375 1.0 -1.265625q0.703125 -0.4375 1.609375 -0.4375q0.84375 0 1.40625 0.296875q0.578125 0.296875 0.84375 0.9375q0.28125 0.625 0.28125 1.578125l0 4.4375l-1.1875 0l0 -4.375q0 -0.65625 -0.171875 -1.078125q-0.15625 -0.421875 -0.515625 -0.625q-0.359375 -0.203125 -0.9375 -0.203125q-0.640625 0 -1.125 0.28125q-0.484375 0.265625 -0.75 0.765625q-0.265625 0.5 -0.265625 1.171875l0 4.0625l-1.1875 0zm8.324768 0l0 -7.125l1.15625 0l0 1.578125l-0.15625 0q0.3125 -0.84375 1.0 -1.265625q0.703125 -0.4375 1.609375 -0.4375q0.84375 0 1.40625 0.296875q0.578125 0.296875 0.84375 0.9375q0.28125 0.625 0.28125 1.578125l0 4.4375l-1.1875 0l0 -4.375q0 -0.65625 -0.171875 -1.078125q-0.15625 -0.421875 -0.515625 -0.625q-0.359375 -0.203125 -0.9375 -0.203125q-0.640625 0 -1.125 0.28125q-0.484375 0.265625 -0.75 0.765625q-0.265625 0.5 -0.265625 1.171875l0 4.0625l-1.1875 0zm8.184143 -8.890625l0 -1.34375l1.46875 0l0 1.34375l-1.46875 0zm0.140625 8.890625l0 -7.125l1.1875 0l0 7.125l-1.1875 0zm5.8065186 0.125q-0.5625 0 -1.078125 -0.109375q-0.515625 -0.109375 -0.96875 -0.296875q-0.4375 -0.203125 -0.765625 -0.484375l0.375 -0.828125q0.359375 0.28125 0.765625 0.46875q0.40625 0.171875 0.828125 0.265625q0.4375 0.078125 0.875 0.078125q0.828125 0 1.25 -0.296875q0.4375 -0.3125 0.4375 -0.84375q0 -0.40625 -0.28125 -0.640625q-0.28125 -0.25 -0.875 -0.390625l-1.34375 -0.28125q-0.921875 -0.1875 -1.375 -0.65625q-0.4375 -0.484375 -0.4375 -1.21875q0 -0.671875 0.34375 -1.140625q0.34375 -0.484375 0.96875 -0.734375q0.640625 -0.265625 1.46875 -0.265625q0.5 0 0.953125 0.109375q0.453125 0.09375 0.859375 0.296875q0.40625 0.1875 0.703125 0.484375l-0.40625 0.828125q-0.265625 -0.265625 -0.625 -0.4375q-0.34375 -0.1875 -0.71875 -0.28125q-0.375 -0.09375 -0.765625 -0.09375q-0.8125 0 -1.25 0.328125q-0.421875 0.3125 -0.421875 0.84375q0 0.40625 0.265625 0.671875q0.265625 0.265625 0.828125 0.375l1.328125 0.28125q0.953125 0.203125 1.421875 0.65625q0.484375 0.453125 0.484375 1.203125q0 0.65625 -0.359375 1.140625q-0.34375 0.46875 -0.984375 0.71875q-0.640625 0.25 -1.5 0.25zm7.6121826 0q-1.046875 0 -1.8125 -0.453125q-0.75 -0.453125 -1.171875 -1.28125q-0.421875 -0.828125 -0.421875 -1.953125q0 -1.125 0.421875 -1.953125q0.421875 -0.828125 1.171875 -1.28125q0.765625 -0.453125 1.8125 -0.453125q1.03125 0 1.796875 0.453125q0.765625 0.453125 1.171875 1.28125q0.421875 0.828125 0.421875 1.953125q0 1.125 -0.421875 1.953125q-0.40625 0.828125 -1.171875 1.28125q-0.765625 0.453125 -1.796875 0.453125zm0 -0.953125q1.0 0 1.59375 -0.703125q0.59375 -0.71875 0.59375 -2.046875q0 -1.3125 -0.59375 -2.015625q-0.59375 -0.703125 -1.59375 -0.703125q-1.0 0 -1.609375 0.703125q-0.59375 0.703125 -0.59375 2.015625q0 1.328125 0.59375 2.046875q0.609375 0.703125 1.609375 0.703125zm5.180176 0.828125l0 -7.125l1.15625 0l0 1.578125l-0.15625 0q0.3125 -0.84375 1.0 -1.265625q0.703125 -0.4375 1.609375 -0.4375q0.84375 0 1.40625 0.296875q0.578125 0.296875 0.84375 0.9375q0.28125 0.625 0.28125 1.578125l0 4.4375l-1.1875 0l0 -4.375q0 -0.65625 -0.171875 -1.078125q-0.15625 -0.421875 -0.515625 -0.625q-0.359375 -0.203125 -0.9375 -0.203125q-0.640625 0 -1.125 0.28125q-0.484375 0.265625 -0.75 0.765625q-0.265625 0.5 -0.265625 1.171875l0 4.0625l-1.1875 0z" fill-rule="nonzero"/><path fill="#464646" d="m66.407234 679.71704l0 -10.328125l4.078125 0q1.125 0 1.890625 0.359375q0.765625 0.359375 1.15625 1.0625q0.40625 0.6875 0.40625 1.6875q0 0.953125 -0.40625 1.671875q-0.390625 0.703125 -1.15625 1.0625q-0.765625 0.359375 -1.890625 0.359375l-2.875 0l0 4.125l-1.203125 0zm1.203125 -5.125l2.734375 0q1.1875 0 1.796875 -0.53125q0.609375 -0.546875 0.609375 -1.5625q0 -1.046875 -0.609375 -1.578125q-0.609375 -0.546875 -1.796875 -0.546875l-2.734375 0l0 4.21875zm7.755768 5.125l0 -7.125l1.15625 0l0 1.6875l-0.140625 0q0.25 -0.859375 0.859375 -1.3125q0.625 -0.453125 1.625 -0.515625l0.4375 -0.046875l0.078125 1.03125l-0.75 0.078125q-0.984375 0.09375 -1.53125 0.640625q-0.53125 0.546875 -0.53125 1.5l0 4.0625l-1.203125 0zm8.377716 0.125q-1.140625 0 -1.953125 -0.4375q-0.8125 -0.453125 -1.265625 -1.265625q-0.4375 -0.828125 -0.4375 -1.96875q0 -1.109375 0.4375 -1.9375q0.4375 -0.828125 1.203125 -1.296875q0.78125 -0.46875 1.796875 -0.46875q0.96875 0 1.65625 0.421875q0.6875 0.421875 1.0625 1.203125q0.375 0.78125 0.375 1.859375l0 0.453125l-5.625 0l0 -0.78125l4.828125 0l-0.234375 0.1875q0 -1.171875 -0.53125 -1.8125q-0.515625 -0.65625 -1.5 -0.65625q-0.75 0 -1.28125 0.34375q-0.515625 0.34375 -0.78125 0.953125q-0.265625 0.609375 -0.265625 1.40625l0 0.09375q0 0.890625 0.28125 1.515625q0.296875 0.609375 0.859375 0.921875q0.578125 0.3125 1.375 0.3125q0.625 0 1.21875 -0.1875q0.59375 -0.203125 1.125 -0.65625l0.40625 0.84375q-0.484375 0.4375 -1.234375 0.703125q-0.75 0.25 -1.515625 0.25zm6.9846497 0q-0.5625 0 -1.078125 -0.109375q-0.515625 -0.109375 -0.96875 -0.296875q-0.4375 -0.203125 -0.765625 -0.484375l0.375 -0.828125q0.359375 0.28125 0.765625 0.46875q0.40625 0.171875 0.828125 0.265625q0.4375 0.078125 0.875 0.078125q0.828125 0 1.25 -0.296875q0.4375 -0.3125 0.4375 -0.84375q0 -0.40625 -0.28125 -0.640625q-0.28125 -0.25 -0.875 -0.390625l-1.34375 -0.28125q-0.921875 -0.1875 -1.375 -0.65625q-0.4375 -0.484375 -0.4375 -1.21875q0 -0.671875 0.34375 -1.140625q0.34375 -0.484375 0.96875 -0.734375q0.640625 -0.265625 1.46875 -0.265625q0.5 0 0.953125 0.109375q0.453125 0.09375 0.859375 0.296875q0.40625 0.1875 0.703125 0.484375l-0.40625 0.828125q-0.265625 -0.265625 -0.625 -0.4375q-0.34375 -0.1875 -0.71875 -0.28125q-0.375 -0.09375 -0.765625 -0.09375q-0.8125 0 -1.25 0.328125q-0.421875 0.3125 -0.421875 0.84375q0 0.40625 0.265625 0.671875q0.265625 0.265625 0.828125 0.375l1.328125 0.28125q0.953125 0.203125 1.421875 0.65625q0.484375 0.453125 0.484375 1.203125q0 0.65625 -0.359375 1.140625q-0.34375 0.46875 -0.984375 0.71875q-0.640625 0.25 -1.5 0.25zm7.8621826 0q-1.140625 0 -1.953125 -0.4375q-0.8125 -0.453125 -1.265625 -1.265625q-0.4375 -0.828125 -0.4375 -1.96875q0 -1.109375 0.4375 -1.9375q0.4375 -0.828125 1.203125 -1.296875q0.78125 -0.46875 1.796875 -0.46875q0.96875 0 1.65625 0.421875q0.6875 0.421875 1.0625 1.203125q0.375 0.78125 0.375 1.859375l0 0.453125l-5.625 0l0 -0.78125l4.828125 0l-0.234375 0.1875q0 -1.171875 -0.53125 -1.8125q-0.515625 -0.65625 -1.5 -0.65625q-0.75 0 -1.28125 0.34375q-0.515625 0.34375 -0.78125 0.953125q-0.265625 0.609375 -0.265625 1.40625l0 0.09375q0 0.890625 0.28125 1.515625q0.296875 0.609375 0.859375 0.921875q0.578125 0.3125 1.375 0.3125q0.625 0 1.21875 -0.1875q0.59375 -0.203125 1.125 -0.65625l0.40625 0.84375q-0.484375 0.4375 -1.234375 0.703125q-0.75 0.25 -1.515625 0.25zm4.5783997 -0.125l0 -7.125l1.15625 0l0 1.578125l-0.15625 0q0.3125 -0.84375 1.0 -1.265625q0.703125 -0.4375 1.609375 -0.4375q0.84375 0 1.40625 0.296875q0.578125 0.296875 0.84375 0.9375q0.28125 0.625 0.28125 1.578125l0 4.4375l-1.1875 0l0 -4.375q0 -0.65625 -0.171875 -1.078125q-0.15625 -0.421875 -0.515625 -0.625q-0.359375 -0.203125 -0.9375 -0.203125q-0.640625 0 -1.125 0.28125q-0.484375 0.265625 -0.75 0.765625q-0.265625 0.5 -0.265625 1.171875l0 4.0625l-1.1875 0zm11.184158 0.125q-1.25 0 -1.890625 -0.671875q-0.625 -0.671875 -0.625 -1.921875l0 -3.734375l-1.390625 0l0 -0.921875l1.390625 0l0 -2.1875l1.1875 0l0 2.1875l2.25 0l0 0.921875l-2.25 0l0 3.625q0 0.828125 0.34375 1.265625q0.359375 0.4375 1.15625 0.4375q0.234375 0 0.46875 -0.0625q0.234375 -0.0625 0.421875 -0.125l0.203125 0.921875q-0.1875 0.09375 -0.5625 0.171875q-0.359375 0.09375 -0.703125 0.09375zm4.5203247 0q-0.734375 0 -1.3125 -0.28125q-0.578125 -0.28125 -0.921875 -0.78125q-0.328125 -0.5 -0.328125 -1.109375q0 -0.796875 0.390625 -1.25q0.40625 -0.453125 1.328125 -0.640625q0.9375 -0.203125 2.5625 -0.203125l0.65625 0l0 0.78125l-0.65625 0q-0.890625 0 -1.5 0.0625q-0.59375 0.0625 -0.953125 0.203125q-0.34375 0.140625 -0.484375 0.375q-0.140625 0.234375 -0.140625 0.59375q0 0.59375 0.40625 0.984375q0.421875 0.375 1.140625 0.375q0.59375 0 1.03125 -0.265625q0.453125 -0.28125 0.703125 -0.765625q0.265625 -0.484375 0.265625 -1.125l0 -1.671875q0 -0.90625 -0.375 -1.296875q-0.359375 -0.40625 -1.203125 -0.40625q-0.640625 0 -1.25 0.1875q-0.59375 0.171875 -1.21875 0.578125l-0.421875 -0.859375q0.390625 -0.265625 0.875 -0.453125q0.484375 -0.203125 1.0 -0.296875q0.53125 -0.109375 1.015625 -0.109375q0.921875 0 1.515625 0.296875q0.609375 0.296875 0.90625 0.90625q0.296875 0.609375 0.296875 1.5625l0 4.484375l-1.125 0l0 -1.65625l0.140625 0q-0.125 0.5625 -0.453125 0.953125q-0.328125 0.390625 -0.8125 0.609375q-0.484375 0.21875 -1.078125 0.21875zm8.377213 0q-1.25 0 -1.890625 -0.671875q-0.625 -0.671875 -0.625 -1.921875l0 -3.734375l-1.390625 0l0 -0.921875l1.390625 0l0 -2.1875l1.1875 0l0 2.1875l2.2500076 0l0 0.921875l-2.2500076 0l0 3.625q0 0.828125 0.34375 1.265625q0.359375 0.4375 1.15625 0.4375q0.234375 0 0.46875 -0.0625q0.23438263 -0.0625 0.42188263 -0.125l0.203125 0.921875q-0.1875 0.09375 -0.5625076 0.171875q-0.359375 0.09375 -0.703125 0.09375zm2.1297073 -9.015625l0 -1.34375l1.46875 0l0 1.34375l-1.46875 0zm0.140625 8.890625l0 -7.125l1.1875 0l0 7.125l-1.1875 0zm6.3690186 0.125q-1.046875 0 -1.8125 -0.453125q-0.75 -0.453125 -1.171875 -1.28125q-0.421875 -0.828125 -0.421875 -1.953125q0 -1.125 0.421875 -1.953125q0.421875 -0.828125 1.171875 -1.28125q0.765625 -0.453125 1.8125 -0.453125q1.03125 0 1.796875 0.453125q0.765625 0.453125 1.171875 1.28125q0.421875 0.828125 0.421875 1.953125q0 1.125 -0.421875 1.953125q-0.40625 0.828125 -1.171875 1.28125q-0.765625 0.453125 -1.796875 0.453125zm0 -0.953125q1.0 0 1.59375 -0.703125q0.59375 -0.71875 0.59375 -2.046875q0 -1.3125 -0.59375 -2.015625q-0.59375 -0.703125 -1.59375 -0.703125q-1.0 0 -1.609375 0.703125q-0.59375 0.703125 -0.59375 2.015625q0 1.328125 0.59375 2.046875q0.609375 0.703125 1.609375 0.703125zm5.1801605 0.828125l0 -7.125l1.15625 0l0 1.578125l-0.15625 0q0.3125 -0.84375 1.0 -1.265625q0.703125 -0.4375 1.609375 -0.4375q0.84375 0 1.40625 0.296875q0.578125 0.296875 0.84375 0.9375q0.28125 0.625 0.28125 1.578125l0 4.4375l-1.1875 0l0 -4.375q0 -0.65625 -0.171875 -1.078125q-0.15625 -0.421875 -0.515625 -0.625q-0.359375 -0.203125 -0.9375 -0.203125q-0.640625 0 -1.125 0.28125q-0.484375 0.265625 -0.75 0.765625q-0.265625 0.5 -0.265625 1.171875l0 4.0625l-1.1875 0zm14.794586 0l0 -9.296875l-3.75 0l0 -1.03125l8.71875 0l0 1.03125l-3.75 0l0 9.296875l-1.21875 0zm8.224045 0.125q-1.140625 0 -1.953125 -0.4375q-0.8125 -0.453125 -1.265625 -1.265625q-0.4375 -0.828125 -0.4375 -1.96875q0 -1.109375 0.4375 -1.9375q0.4375 -0.828125 1.203125 -1.296875q0.78125 -0.46875 1.796875 -0.46875q0.96875 0 1.65625 0.421875q0.6875 0.421875 1.0625 1.203125q0.375 0.78125 0.375 1.859375l0 0.453125l-5.625 0l0 -0.78125l4.828125 0l-0.234375 0.1875q0 -1.171875 -0.53125 -1.8125q-0.515625 -0.65625 -1.5 -0.65625q-0.75 0 -1.28125 0.34375q-0.515625 0.34375 -0.78125 0.953125q-0.265625 0.609375 -0.265625 1.40625l0 0.09375q0 0.890625 0.28125 1.515625q0.296875 0.609375 0.859375 0.921875q0.578125 0.3125 1.375 0.3125q0.625 0 1.21875 -0.1875q0.59375 -0.203125 1.125 -0.65625l0.40625 0.84375q-0.484375 0.4375 -1.234375 0.703125q-0.75 0.25 -1.515625 0.25zm4.6096497 -0.125l0 -7.125l1.15625 0l0 1.578125l-0.15625 0q0.171875 -0.53125 0.515625 -0.921875q0.34375 -0.390625 0.8125 -0.578125q0.484375 -0.203125 1.0625 -0.203125q0.90625 0 1.46875 0.4375q0.5625 0.421875 0.75 1.328125l-0.21875 0q0.265625 -0.8125 0.9375 -1.28125q0.6875 -0.484375 1.609375 -0.484375q0.796875 0 1.3125 0.3125q0.53125 0.296875 0.796875 0.921875q0.265625 0.625 0.265625 1.578125l0 4.4375l-1.1875 0l0 -4.375q0 -0.984375 -0.34375 -1.4375q-0.34375 -0.46875 -1.140625 -0.46875q-0.578125 0 -1.015625 0.28125q-0.421875 0.265625 -0.65625 0.78125q-0.21875 0.5 -0.21875 1.1875l0 4.03125l-1.1875 0l0 -4.375q0 -0.984375 -0.34375 -1.4375q-0.34375 -0.46875 -1.140625 -0.46875q-0.578125 0 -1.015625 0.28125q-0.421875 0.265625 -0.65625 0.78125q-0.21875 0.5 -0.21875 1.1875l0 4.03125l-1.1875 0zm12.514542 2.640625l0 -9.765625l1.15625 0l0 1.6875l-0.140625 0q0.234375 -0.828125 0.921875 -1.3125q0.703125 -0.5 1.671875 -0.5q0.953125 0 1.65625 0.453125q0.71875 0.4375 1.109375 1.265625q0.390625 0.828125 0.390625 1.96875q0 1.125 -0.390625 1.953125q-0.390625 0.828125 -1.09375 1.28125q-0.703125 0.453125 -1.671875 0.453125q-0.96875 0 -1.65625 -0.484375q-0.6875 -0.484375 -0.9375 -1.3125l0.171875 0l0 4.3125l-1.1875 0zm3.359375 -3.46875q1.015625 0 1.609375 -0.703125q0.59375 -0.71875 0.59375 -2.03125q0 -1.328125 -0.59375 -2.03125q-0.59375 -0.703125 -1.609375 -0.703125q-1.0 0 -1.609375 0.703125q-0.59375 0.703125 -0.59375 2.03125q0 1.3125 0.59375 2.03125q0.609375 0.703125 1.609375 0.703125zm7.372757 0.953125q-1.078125 0 -1.640625 -0.640625q-0.546875 -0.640625 -0.546875 -1.84375l0 -7.96875l1.1875 0l0 7.875q0 0.515625 0.140625 0.875q0.140625 0.34375 0.421875 0.53125q0.28125 0.171875 0.6875 0.171875q0.171875 0 0.34375 -0.015625q0.171875 -0.03125 0.3125 -0.078125l-0.03125 1.0q-0.234375 0.046875 -0.453125 0.0625q-0.203125 0.03125 -0.421875 0.03125zm4.400772 0q-0.734375 0 -1.3125 -0.28125q-0.578125 -0.28125 -0.921875 -0.78125q-0.328125 -0.5 -0.328125 -1.109375q0 -0.796875 0.390625 -1.25q0.40625 -0.453125 1.328125 -0.640625q0.9375 -0.203125 2.5625 -0.203125l0.65625 0l0 0.78125l-0.65625 0q-0.890625 0 -1.5 0.0625q-0.59375 0.0625 -0.953125 0.203125q-0.34375 0.140625 -0.484375 0.375q-0.140625 0.234375 -0.140625 0.59375q0 0.59375 0.40625 0.984375q0.421875 0.375 1.140625 0.375q0.59375 0 1.03125 -0.265625q0.453125 -0.28125 0.703125 -0.765625q0.265625 -0.484375 0.265625 -1.125l0 -1.671875q0 -0.90625 -0.375 -1.296875q-0.359375 -0.40625 -1.203125 -0.40625q-0.640625 0 -1.25 0.1875q-0.59375 0.171875 -1.21875 0.578125l-0.421875 -0.859375q0.390625 -0.265625 0.875 -0.453125q0.484375 -0.203125 1.0 -0.296875q0.53125 -0.109375 1.015625 -0.109375q0.921875 0 1.515625 0.296875q0.609375 0.296875 0.90625 0.90625q0.296875 0.609375 0.296875 1.5625l0 4.484375l-1.125 0l0 -1.65625l0.140625 0q-0.125 0.5625 -0.453125 0.953125q-0.328125 0.390625 -0.8125 0.609375q-0.484375 0.21875 -1.078125 0.21875zm8.377213 0q-1.25 0 -1.890625 -0.671875q-0.625 -0.671875 -0.625 -1.921875l0 -3.734375l-1.390625 0l0 -0.921875l1.390625 0l0 -2.1875l1.1875 0l0 2.1875l2.25 0l0 0.921875l-2.25 0l0 3.625q0 0.828125 0.34375 1.265625q0.359375 0.4375 1.15625 0.4375q0.234375 0 0.46875 -0.0625q0.234375 -0.0625 0.421875 -0.125l0.203125 0.921875q-0.1875 0.09375 -0.5625 0.171875q-0.359375 0.09375 -0.703125 0.09375zm5.415741 0q-1.140625 0 -1.953125 -0.4375q-0.8125 -0.453125 -1.265625 -1.265625q-0.4375 -0.828125 -0.4375 -1.96875q0 -1.109375 0.4375 -1.9375q0.4375 -0.828125 1.203125 -1.296875q0.78125 -0.46875 1.796875 -0.46875q0.96875 0 1.65625 0.421875q0.6875 0.421875 1.0625 1.203125q0.375 0.78125 0.375 1.859375l0 0.453125l-5.625 0l0 -0.78125l4.828125 0l-0.234375 0.1875q0 -1.171875 -0.53125 -1.8125q-0.515625 -0.65625 -1.5 -0.65625q-0.75 0 -1.28125 0.34375q-0.515625 0.34375 -0.78125 0.953125q-0.265625 0.609375 -0.265625 1.40625l0 0.09375q0 0.890625 0.28125 1.515625q0.296875 0.609375 0.859375 0.921875q0.578125 0.3125 1.375 0.3125q0.625 0 1.21875 -0.1875q0.59375 -0.203125 1.125 -0.65625l0.40625 0.84375q-0.484375 0.4375 -1.234375 0.703125q-0.75 0.25 -1.515625 0.25z" fill-rule="nonzero"/><path fill="#000000" fill-opacity="0.0" d="m65.125984 165.47769l499.74805 0l0 454.80313l-499.74805 0z" fill-rule="evenodd"/><path fill="#000000" fill-opacity="0.0" d="m715.1102 165.47769l499.74805 0l0 454.80313l-499.74805 0z" fill-rule="evenodd"/><path fill="#000000" fill-opacity="0.0" d="m639.9987 78.30987c-31.747986 0 -63.498474 20.90532 -87.54901 62.60058l-179.48221 310.86346c-48.158752 83.44821 -8.765961 151.7222 87.60669 151.7222l358.85165 0c96.37262 0 135.76538 -68.27399 87.60669 -151.7222l-179.48224 -310.86346c-24.108215 -41.69526 -55.801025 -62.60058 -87.551575 -62.60058z" fill-rule="evenodd"/><path stroke="#9a112c" stroke-width="12.0" stroke-linejoin="round" stroke-linecap="butt" d="m639.9987 78.30987c-31.747986 0 -63.498474 20.90532 -87.54901 62.60058l-179.48221 310.86346c-48.158752 83.44821 -8.765961 151.7222 87.60669 151.7222l358.85165 0c96.37262 0 135.76538 -68.27399 87.60669 -151.7222l-179.48224 -310.86346c-24.108215 -41.69526 -55.801025 -62.60058 -87.551575 -62.60058z" fill-rule="evenodd"/><path fill="#000000" fill-opacity="0.0" d="m639.88837 78.30987z" fill-rule="evenodd"/><path stroke="#9a112c" stroke-width="12.0" stroke-miterlimit="22.4045" stroke-linecap="butt" d="m639.88837 78.30987z" fill-rule="evenodd"/></g></svg>